<svg width="424" height="337" viewBox="0 0 424 337" fill="none" xmlns="http://www.w3.org/2000/svg">
<g clip-path="url(#clip0)">
<path fill-rule="evenodd" clip-rule="evenodd" d="M163.5 27.6625H190.667V54.8292H217.833V105.115L312.917 140.676V312.913H326.5V326.496H0.5V312.913H14.0833V163.496H95.5833V54.8292H122.75V27.6625H149.917V0.49585H163.5V27.6625ZM204.25 68.4125H109.167V312.913H122.75V285.746H190.667V312.913H204.25V68.4125ZM177.083 299.329H136.333V312.913H177.083V299.329ZM285.75 312.913H299.333V150.089L217.833 119.622V312.913H231.417V285.746H285.75V312.913ZM95.5833 177.079H27.6667V312.913H41.25V285.746H82V312.913H95.5833V177.079ZM68.4167 299.329H54.8333V312.913H68.4167V299.329ZM272.167 299.329H245V312.913H272.167V299.329ZM54.8333 231.413V258.579H41.25V231.413H54.8333ZM82 231.413V258.579H68.4167V231.413H82ZM149.917 95.5792V258.579H136.333V95.5792H149.917ZM285.75 244.996V258.579H231.417V244.996H285.75ZM177.083 95.5792V258.579H163.5V95.5792H177.083ZM285.75 217.829V231.413H231.417V217.829H285.75ZM54.8333 190.663V217.829H41.25V190.663H54.8333ZM82 190.663V217.829H68.4167V190.663H82ZM285.75 190.663V204.246H231.417V190.663H285.75ZM285.75 163.496V177.079H231.417V163.496H285.75ZM177.083 41.2458H136.333V54.8292H177.083V41.2458Z" fill="black"/>
<g clip-path="url(#clip1)">
<path fill-rule="evenodd" clip-rule="evenodd" d="M122.708 313H115.292V293.991C112.303 293.22 109.681 291.54 107.73 289.267C105.498 290.22 103.039 290.75 100.458 290.75C90.2233 290.75 81.9166 282.443 81.9166 272.208C81.9166 266.935 84.1231 262.17 87.6645 258.795C86.374 256.778 85.625 254.382 85.625 251.812C85.625 244.848 91.1244 239.156 98.0145 238.848C101.066 230.2 109.314 224 119 224C128.686 224 136.933 230.2 139.985 238.848C146.876 239.156 152.375 244.848 152.375 251.812C152.375 254.382 151.626 256.778 150.335 258.795C153.877 262.17 156.083 266.935 156.083 272.208C156.083 282.443 147.777 290.75 137.542 290.75C134.961 290.75 132.502 290.22 130.27 289.267C128.319 291.54 125.697 293.22 122.708 293.991V313Z" fill="#2DA771"/>
</g>
</g>
<g clip-path="url(#clip2)">
<path fill-rule="evenodd" clip-rule="evenodd" d="M332.917 310.746H324.25C321.858 310.746 319.917 308.823 319.917 306.454V297.871H384.917V259.246H405.141C409.981 259.246 412.074 261.718 413.53 263.997C416.104 268.031 420.186 274.434 422.669 278.494C423.484 279.833 423.917 281.369 423.917 282.936V302.163C423.917 306.973 420.762 310.746 415.25 310.746H410.917C410.917 317.853 405.093 323.621 397.917 323.621C390.741 323.621 384.917 317.853 384.917 310.746H358.917C358.917 317.853 353.093 323.621 345.917 323.621C338.741 323.621 332.917 317.853 332.917 310.746V310.746ZM345.917 305.596C348.786 305.596 351.117 307.905 351.117 310.746C351.117 313.587 348.786 315.896 345.917 315.896C343.048 315.896 340.717 313.587 340.717 310.746C340.717 307.905 343.048 305.596 345.917 305.596ZM397.917 305.596C400.786 305.596 403.117 307.905 403.117 310.746C403.117 313.587 400.786 315.896 397.917 315.896C395.048 315.896 392.717 313.587 392.717 310.746C392.717 307.905 395.048 305.596 397.917 305.596ZM380.584 293.579H319.917V250.663C319.917 248.294 321.858 246.371 324.25 246.371H376.25C378.642 246.371 380.584 248.294 380.584 250.663V293.579ZM393.584 267.829V280.704H414.015L407.832 269.992C407.06 268.653 405.626 267.829 404.07 267.829H393.584Z" fill="#2DA771"/>
</g>
<defs>
<clipPath id="clip0">
<rect width="326" height="326" fill="white" transform="translate(0.5 0.49585)"/>
</clipPath>
<clipPath id="clip1">
<rect width="89" height="89" fill="white" transform="translate(74.5 224)"/>
</clipPath>
<clipPath id="clip2">
<rect width="104" height="103" fill="white" transform="translate(319.917 233.496)"/>
</clipPath>
</defs>
</svg>
