<svg width="62" height="61" viewBox="0 0 62 61" fill="none" xmlns="http://www.w3.org/2000/svg">
<g clip-path="url(#clip0)">

<rect width="62" height="62" transform="translate(0 -1)" fill="none"/>
<path fill-rule="evenodd" clip-rule="evenodd" d="M53.5455 29.9997C53.5455 23.391 50.7039 17.4481 46.1715 13.3224L48.0685 11.2383C53.1629 15.8756 56.3636 22.5648 56.3636 29.9997C56.3636 37.0003 53.5256 43.3407 48.9406 47.9286L46.9472 45.9365C51.0257 41.8555 53.5455 36.2232 53.5455 29.9997ZM15.006 14.1098C10.9551 18.187 8.45455 23.8 8.45455 29.9997C8.45455 36.5307 11.2297 42.4113 15.6693 46.5306L13.7525 48.5965C8.76225 43.9663 5.63637 37.347 5.63637 29.9997C5.63637 23.0259 8.45272 16.7072 13.0068 12.1235L15.006 14.1098Z" fill="#1D1D1B"/>
<path fill-rule="evenodd" clip-rule="evenodd" d="M45.0909 10.2727H52.1364V13.0909H47.9091V17.3182H45.0909V10.2727Z" fill="#1D1D1B"/>
<path fill-rule="evenodd" clip-rule="evenodd" d="M16.9091 42.6818V49.7272H9.86365V46.909H14.0909V42.6818H16.9091Z" fill="#1D1D1B"/>
<path fill-rule="evenodd" clip-rule="evenodd" d="M15.5 32.8204V17.3182H38.0486V28.5925H35.2301V25.7739H18.3186V30.0018H22.5465V32.8204H15.5ZM35.2301 20.1368V21.546H18.3186V20.1368H35.2301Z" fill="#1D1D1B"/>
<path fill-rule="evenodd" clip-rule="evenodd" d="M22.5464 28.5925H46.5043V44.0947H22.5464V28.5925ZM25.3646 41.2765H43.6862V31.4107H25.3646V41.2765Z" fill="#00A88E"/>
<path d="M26.7744 34.2296H32.4107V37.0477H26.7744V34.2296Z" fill="#1D1D1B"/>
<path d="M26.7744 38.4576H29.5925V39.8667H26.7744V38.4576Z" fill="#1D1D1B"/>
<path d="M31.0022 38.4576H33.8204V39.8667H31.0022V38.4576Z" fill="#1D1D1B"/>
<path d="M35.23 38.4576H38.0482V39.8667H35.23V38.4576Z" fill="#1D1D1B"/>
<path d="M39.458 38.4576H42.2761V39.8667H39.458V38.4576Z" fill="#1D1D1B"/>
</g>
<defs>
<clipPath id="clip0">
<rect width="61" height="61" fill="white" transform="translate(0.5)"/>
</clipPath>
</defs>
</svg>
