<svg width="61" height="57" viewBox="0 0 61 57" fill="none" xmlns="http://www.w3.org/2000/svg">
<path fill-rule="evenodd" clip-rule="evenodd" d="M15.25 39.0068V24.6136H12.4773V40.7205L30.5 49.7318L48.5227 40.7205V24.6136H45.75V39.0068L30.5 46.6318L15.25 39.0068Z" fill="#1D1D1B"/>
<path fill-rule="evenodd" clip-rule="evenodd" d="M29.1136 48.1818V24.6136H31.8864V48.1818H29.1136Z" fill="#1D1D1B"/>
<path fill-rule="evenodd" clip-rule="evenodd" d="M47.1364 14.7455L58.5546 20.4546L38.8182 30.3228L27.4 24.6137L47.1364 14.7455ZM33.6 24.6137L38.8182 27.2228L52.3545 20.4546L47.1364 17.8455L33.6 24.6137Z" fill="#00A88E"/>
<path fill-rule="evenodd" clip-rule="evenodd" d="M22.1818 2.26819L33.6 7.97728L13.8636 17.8455L2.44545 12.1364L22.1818 2.26819ZM8.64546 12.1364L13.8636 14.7455L27.4 7.97728L22.1818 5.36819L8.64546 12.1364Z" fill="#00A88E"/>
<path fill-rule="evenodd" clip-rule="evenodd" d="M13.8636 14.7455L2.44545 20.4546L22.1818 30.3228L33.6 24.6137L13.8636 14.7455ZM27.4 24.6137L22.1818 27.2228L8.64546 20.4546L13.8636 17.8455L27.4 24.6137Z" fill="#00A88E"/>
<path fill-rule="evenodd" clip-rule="evenodd" d="M38.8182 2.26819L27.4 7.97728L47.1364 17.8455L58.5546 12.1364L38.8182 2.26819ZM52.3545 12.1364L47.1364 14.7455L33.6 7.97728L38.8182 5.36819L52.3545 12.1364Z" fill="#00A88E"/>
</svg>
