<?xml version="1.0" standalone="no"?>
<!DOCTYPE svg PUBLIC "-//W3C//DTD SVG 20010904//EN"
 "http://www.w3.org/TR/2001/REC-SVG-20010904/DTD/svg10.dtd">
<svg version="1.0" xmlns="http://www.w3.org/2000/svg"
 width="3471.000000pt" height="4134.000000pt" viewBox="0 0 3471.000000 4134.000000"
 preserveAspectRatio="xMidYMid meet">

<g transform="translate(0.000000,4134.000000) scale(0.100000,-0.100000)"
fill="#000000" stroke="none">
<path d="M17257 41019 c-28 -43 -46 -94 -66 -195 -75 -368 -134 -1325 -146
-2379 -11 -963 -23 -1553 -65 -3185 -34 -1337 -36 -1624 -35 -5530 2 -4142 -1
-3897 55 -4375 48 -410 162 -1180 211 -1422 l10 -53 49 0 48 0 12 53 c22 104
80 486 99 662 69 615 91 1204 143 3750 16 779 16 3340 -1 4515 -6 487 -16
1823 -21 2970 -11 2414 -16 2662 -76 3680 -51 872 -110 1356 -183 1499 l-18
35 -16 -25z"/>
<path d="M15102 34305 c-155 -189 -19 -485 335 -726 40 -27 80 -61 89 -75 16
-23 15 -30 -6 -109 -14 -51 -20 -94 -16 -110 4 -15 31 -61 60 -103 103 -148
120 -211 69 -252 -39 -31 -88 -21 -263 52 -190 79 -281 102 -379 96 -81 -5
-127 -22 -174 -67 -24 -22 -67 -89 -67 -104 0 -3 64 -7 143 -9 208 -6 242 -25
310 -168 83 -174 250 -299 513 -384 141 -45 205 -55 289 -45 91 11 147 45 170
101 80 202 1 789 -148 1083 -50 100 -120 191 -172 224 -25 16 -86 43 -137 61
-334 116 -527 288 -571 509 l-13 65 -32 -39z"/>
<path d="M34580 33703 c-123 -64 -247 -180 -620 -583 -69 -74 -165 -178 -215
-230 -49 -53 -346 -383 -660 -735 -968 -1088 -1039 -1166 -1370 -1510 -160
-166 -258 -280 -402 -466 -460 -592 -675 -842 -1563 -1819 -767 -844 -1199
-1327 -1754 -1960 -143 -162 -345 -387 -451 -500 -385 -411 -730 -799 -1136
-1275 -204 -241 -271 -320 -1190 -1425 -462 -555 -840 -1001 -1076 -1268
l-100 -113 68 -342 c38 -188 71 -352 74 -365 5 -20 17 -10 103 90 291 338
1128 1301 2038 2348 2457 2826 3515 4054 3969 4605 132 160 448 542 704 850
1870 2252 2477 3004 3195 3959 305 406 340 454 386 546 39 77 92 230 80 230
-4 0 -40 -17 -80 -37z"/>
<path d="M0 33521 c0 -63 94 -218 338 -553 93 -128 243 -327 332 -443 219
-281 709 -921 1072 -1400 174 -229 409 -522 569 -710 717 -843 1129 -1349
1684 -2070 639 -829 1172 -1480 2284 -2790 986 -1160 3355 -3905 3371 -3905 4
0 76 57 161 128 85 70 182 149 216 175 33 27 64 58 67 70 10 40 -32 104 -205
307 -401 470 -613 730 -1386 1696 -803 1002 -1199 1484 -1564 1900 -609 693
-831 949 -1944 2239 -1723 1998 -2923 3344 -3635 4080 -75 77 -237 253 -360
390 -349 391 -567 600 -847 813 -45 34 -98 71 -117 83 l-36 21 0 -31z"/>
<path d="M20665 33084 c-165 -29 -404 -107 -645 -209 -124 -52 -160 -89 -160
-163 0 -37 6 -49 47 -93 51 -54 144 -105 248 -134 96 -27 145 -87 145 -178 0
-58 -26 -91 -82 -105 -77 -19 -259 -41 -468 -57 -363 -28 -552 -58 -719 -117
-47 -16 -89 -33 -94 -37 -4 -4 12 -23 35 -41 113 -90 394 -339 488 -431 237
-234 296 -319 369 -532 80 -234 111 -278 363 -517 229 -219 448 -376 603 -436
33 -12 116 -49 185 -82 69 -33 226 -104 350 -157 288 -124 533 -242 638 -308
45 -28 82 -54 82 -57 -1 -9 -184 -129 -215 -140 -47 -18 -255 -25 -311 -11
-27 7 -115 41 -196 77 -171 75 -338 117 -338 85 0 -6 31 -56 69 -113 184 -273
484 -532 739 -639 99 -41 188 -56 398 -69 171 -10 361 -37 464 -66 108 -30
218 -76 255 -106 20 -17 97 -106 170 -198 241 -301 351 -378 594 -414 140 -21
215 -57 259 -125 42 -66 52 -93 52 -147 0 -60 -35 -96 -116 -120 -72 -21 -202
-15 -315 15 -99 25 -266 108 -399 198 -143 95 -209 128 -340 163 -95 26 -128
30 -233 30 -328 0 -625 -117 -703 -276 -15 -30 -25 -57 -22 -59 3 -3 40 4 84
15 125 33 234 35 435 11 328 -39 427 -82 611 -265 133 -131 230 -202 372 -271
137 -67 305 -102 691 -144 367 -41 437 -44 728 -32 507 21 753 66 842 155 69
69 -14 233 -191 375 -101 81 -142 101 -452 216 -468 172 -596 235 -724 357
-63 60 -67 67 -82 135 -20 89 -20 143 -1 303 16 133 12 185 -15 240 -23 45
-51 70 -185 165 -190 135 -447 339 -850 675 -502 418 -624 516 -710 567 -38
23 -108 74 -155 113 -108 91 -276 174 -525 260 -334 115 -347 124 -488 338
-160 241 -244 309 -614 501 -114 59 -249 134 -298 167 -50 32 -133 82 -185
109 -117 63 -203 142 -220 204 -14 52 -7 87 19 101 34 18 220 32 360 28 128
-4 144 -7 266 -48 160 -53 251 -59 325 -21 94 48 128 106 94 159 -9 15 -45 54
-80 87 -56 54 -63 66 -74 119 -15 75 -5 170 23 221 27 48 117 107 219 142 59
21 98 27 200 31 153 5 256 -10 495 -74 187 -50 268 -55 400 -28 245 50 301
121 347 437 9 59 16 110 16 113 0 3 -37 -32 -82 -79 -128 -131 -235 -173 -420
-165 l-96 5 -194 93 c-447 216 -629 271 -882 269 -66 0 -157 -7 -201 -15z"/>
<path d="M15460 31953 c-221 -16 -683 -80 -789 -108 -82 -22 -84 -31 -10 -63
72 -33 148 -52 324 -82 116 -20 317 -75 440 -121 76 -28 138 -87 156 -149 7
-25 13 -83 13 -130 -1 -71 -7 -102 -37 -189 -20 -57 -51 -129 -69 -159 -18
-30 -104 -129 -192 -220 -233 -243 -272 -312 -270 -482 1 -52 6 -107 11 -122
8 -27 9 -26 99 75 115 131 249 252 599 546 179 150 351 305 476 431 192 191
197 197 217 261 48 155 36 238 -48 319 -57 56 -199 131 -289 155 -146 38 -419
54 -631 38z"/>
<path d="M20340 31672 c-40 -16 -45 -21 -44 -49 2 -37 44 -102 107 -162 58
-56 41 -48 247 -121 132 -47 210 -82 319 -144 209 -118 307 -216 413 -415 37
-68 90 -104 211 -141 132 -41 240 -97 411 -210 77 -51 180 -117 230 -148 50
-31 181 -124 292 -208 110 -83 223 -164 250 -179 109 -61 184 -116 274 -201
56 -53 177 -147 295 -229 110 -76 251 -176 313 -222 123 -91 275 -181 452
-266 145 -70 210 -127 286 -250 86 -137 137 -255 189 -427 54 -180 80 -232
149 -304 78 -79 430 -339 547 -403 57 -31 181 -104 274 -162 445 -279 632
-353 889 -352 91 0 105 3 164 32 86 42 244 162 319 243 161 171 270 386 308
604 19 108 19 154 -1 250 -20 97 -46 159 -101 243 -78 120 -180 190 -277 191
-44 1 -116 -22 -116 -37 0 -2 25 -41 55 -85 64 -94 95 -154 120 -229 50 -153
-11 -260 -141 -247 -103 9 -158 53 -316 248 -202 250 -317 339 -671 519 -131
66 -277 146 -325 178 -71 47 -110 64 -217 95 -276 81 -511 178 -611 252 -90
66 -398 268 -541 354 -59 36 -122 78 -141 94 -75 66 -108 188 -92 341 28 261
-5 414 -113 532 l-42 46 65 -5 c118 -10 217 -60 433 -222 395 -295 587 -376
889 -376 201 0 274 20 420 116 79 53 123 100 150 163 20 46 51 158 62 219 l6
33 -48 -49 c-90 -93 -318 -179 -443 -168 -120 11 -287 77 -495 196 -60 34
-298 187 -529 340 -419 278 -591 382 -695 421 -76 29 -222 64 -365 88 -270 46
-369 53 -860 61 -492 9 -616 7 -885 -11 -206 -14 -279 -2 -582 98 -222 73
-238 77 -338 80 -83 2 -114 -1 -150 -15z m2708 -962 c108 -14 175 -40 239 -93
66 -54 97 -96 123 -164 27 -71 62 -235 52 -244 -4 -4 -24 -12 -44 -18 -47 -16
-119 -6 -178 24 -86 44 -238 189 -387 371 -43 52 -68 102 -57 113 3 3 38 9 77
12 40 3 77 6 82 7 6 1 48 -3 93 -8z"/>
<path d="M15171 31136 c-60 -62 -148 -105 -326 -161 -82 -26 -226 -78 -320
-115 -291 -115 -359 -134 -634 -175 -886 -132 -1595 -433 -2024 -858 -105
-104 -169 -185 -265 -332 -126 -192 -215 -274 -532 -485 -378 -252 -604 -480
-736 -742 -19 -37 -34 -70 -34 -72 0 -3 25 12 56 34 117 82 247 122 573 175
119 20 249 44 289 55 40 11 75 20 78 20 3 0 -17 -21 -45 -46 -28 -25 -104
-107 -169 -182 -64 -75 -202 -222 -307 -327 -104 -104 -208 -215 -229 -246
-22 -30 -58 -69 -80 -85 -23 -16 -115 -88 -206 -160 -94 -75 -197 -147 -239
-168 -40 -21 -101 -61 -135 -90 -34 -28 -84 -67 -111 -86 -91 -62 -299 -259
-383 -363 -45 -56 -101 -139 -124 -184 -37 -75 -41 -90 -42 -161 -1 -93 12
-118 81 -159 42 -24 58 -28 128 -28 66 0 90 5 137 27 80 37 165 97 303 213
252 212 346 252 560 241 336 -18 349 -18 425 -2 103 21 220 82 310 161 157
137 209 175 276 207 62 29 80 33 177 36 59 2 107 0 107 -4 0 -20 -43 -76 -143
-188 -113 -126 -167 -215 -186 -304 -12 -58 -15 -142 -5 -142 4 0 37 28 73 63
124 116 215 164 461 242 141 44 244 95 315 155 30 25 146 132 257 239 251 240
305 279 441 321 151 46 267 89 313 115 176 102 319 279 359 446 27 117 25 118
-61 43 -102 -89 -242 -178 -334 -213 -64 -25 -95 -30 -218 -36 -152 -7 -243
-26 -334 -70 -29 -14 -54 -25 -56 -25 -2 0 10 17 27 39 41 51 135 127 306 246
190 132 265 195 327 274 62 78 85 131 133 308 48 177 61 205 145 306 84 101
156 153 273 197 198 74 274 124 320 208 17 32 39 103 57 189 35 159 56 236 77
277 l15 29 -29 -7 c-55 -14 -118 -60 -237 -175 -151 -144 -218 -181 -509 -280
-324 -111 -371 -138 -625 -373 -171 -158 -179 -169 -307 -433 -72 -147 -84
-165 -154 -235 -117 -116 -276 -199 -461 -241 -94 -21 -343 -36 -406 -24 l-39
7 48 43 c27 23 112 79 190 123 196 111 277 170 387 282 187 188 334 434 481
800 65 162 113 241 202 336 79 85 171 153 287 213 154 79 280 116 605 176 296
55 334 64 417 97 112 46 247 126 390 232 96 72 134 108 227 220 127 153 155
180 266 252 95 60 127 96 167 181 24 52 28 71 26 128 l-3 66 -44 -45z"/>
<path d="M11470 29859 c-124 -73 -418 -220 -774 -385 -314 -146 -567 -277
-738 -380 -114 -69 -449 -296 -618 -418 -555 -402 -908 -834 -1064 -1300 -59
-177 -12 -356 132 -506 l57 -58 90 12 c80 11 102 19 195 70 131 73 200 125
245 187 51 68 96 84 223 76 l97 -6 95 67 c55 38 152 123 231 202 151 151 242
276 336 464 31 61 94 176 141 256 47 80 105 189 128 242 67 153 108 226 194
340 149 198 385 416 578 532 62 37 137 86 167 109 77 58 297 324 340 412 36
72 54 135 39 134 -5 0 -47 -23 -94 -50z"/>
<path d="M27425 28918 c-106 -73 -143 -179 -111 -318 9 -41 33 -113 52 -160
80 -190 106 -273 101 -320 -3 -25 -7 -52 -9 -59 -2 -8 10 -18 27 -23 83 -26
105 -41 127 -87 27 -56 30 -140 5 -191 -46 -95 -672 -758 -839 -889 -80 -63
-218 -101 -369 -101 -75 0 -142 -26 -197 -75 -44 -39 -54 -57 -78 -128 -71
-218 -173 -327 -305 -327 -119 0 -321 75 -515 190 -161 96 -250 139 -352 170
-63 19 -90 22 -180 17 -67 -3 -121 -11 -145 -21 -38 -17 -117 -82 -117 -96 0
-5 26 -11 58 -15 114 -12 341 -103 479 -191 29 -18 109 -81 178 -139 70 -59
154 -126 188 -150 112 -77 278 -151 421 -186 100 -25 340 -35 514 -22 120 9
125 11 225 61 532 265 1395 1103 1466 1423 22 97 32 296 21 423 -36 452 -214
771 -524 942 -69 37 -106 80 -106 119 0 18 34 120 54 168 13 27 -16 21 -69
-15z"/>
<path d="M8105 27866 c-160 -46 -293 -115 -361 -188 -46 -49 -83 -117 -283
-513 -187 -372 -262 -508 -320 -576 -18 -22 -32 -41 -30 -43 35 -24 207 -160
279 -220 519 -435 1026 -993 1445 -1591 54 -77 99 -141 100 -142 1 -2 16 55
33 125 64 259 186 507 323 656 184 201 606 431 899 491 144 29 289 114 411
241 65 67 109 137 109 170 0 15 -2 15 -22 0 -113 -81 -237 -112 -498 -127
-321 -17 -362 -26 -649 -143 -90 -36 -200 -76 -245 -88 -310 -83 -448 61 -347
360 49 147 148 332 224 418 l42 47 -49 -6 c-60 -9 -129 -39 -262 -117 -240
-140 -416 -147 -671 -24 -82 39 -109 59 -178 128 -144 147 -207 304 -209 521
-1 145 18 233 76 352 56 116 84 151 174 218 83 61 101 75 94 74 -3 0 -41 -11
-85 -23z"/>
<path d="M31845 25856 c-22 -7 -95 -39 -163 -70 l-123 -58 -427 3 c-476 4
-439 9 -577 -69 -88 -50 -212 -99 -312 -124 -74 -19 -116 -22 -258 -22 -213 0
-285 15 -624 125 -184 61 -264 82 -316 85 l-70 5 -46 -58 c-25 -32 -66 -87
-92 -123 -50 -71 -200 -221 -1083 -1083 -325 -317 -618 -608 -652 -646 -101
-113 -95 -135 119 -427 64 -87 156 -274 198 -400 70 -207 83 -309 90 -704 5
-303 8 -349 24 -377 10 -18 22 -33 27 -33 12 0 82 218 155 485 91 332 162 446
351 569 42 27 89 68 113 99 73 96 158 304 237 587 19 69 57 171 83 226 88 184
173 289 330 407 182 136 396 321 526 454 72 73 163 161 204 196 l75 65 36 -57
c36 -55 93 -113 144 -147 31 -19 28 -22 49 37 23 60 70 104 144 133 l62 24 31
-66 c103 -220 219 -381 307 -423 49 -24 168 -32 227 -16 32 9 32 8 -8 102 -48
116 -51 238 -7 328 44 91 168 182 301 221 30 9 113 26 183 36 268 41 469 139
624 302 98 105 164 235 181 361 10 76 9 76 -63 53z"/>
<path d="M6030 25249 c-42 -17 -89 -70 -146 -164 -227 -375 -280 -453 -373
-546 -132 -132 -112 -126 -491 -138 -347 -11 -460 -24 -589 -67 -97 -33 -171
-72 -246 -132 l-60 -47 160 -11 c294 -21 404 -64 560 -219 124 -123 168 -205
201 -375 15 -76 24 -160 24 -217 0 -51 4 -93 8 -93 15 0 47 42 136 177 122
185 205 272 312 325 83 41 86 41 187 41 429 -3 721 -391 877 -1163 38 -189 62
-356 105 -738 38 -338 58 -460 81 -505 9 -16 17 -27 19 -25 2 1 8 48 15 103
38 328 237 640 447 701 50 15 53 14 101 -10 175 -89 206 -302 110 -746 -23
-107 -21 -210 6 -275 9 -21 51 -72 94 -114 l78 -76 22 -105 c12 -58 26 -139
32 -180 15 -111 59 -287 88 -350 28 -60 117 -156 196 -209 44 -31 48 -32 41
-11 -71 222 -88 359 -90 720 -1 140 -5 316 -10 390 -6 106 -4 160 9 250 30
208 87 421 167 620 48 122 69 225 69 344 0 128 -23 201 -92 287 -29 36 -98
121 -154 190 -131 161 -392 512 -684 919 -408 568 -611 834 -839 1100 -119
138 -329 361 -340 359 -3 0 -17 -5 -31 -10z"/>
<path d="M29698 24586 c-52 -90 -152 -211 -217 -263 -94 -75 -244 -171 -317
-204 -283 -128 -449 -367 -513 -739 -19 -109 -27 -262 -45 -870 -6 -211 -45
-333 -130 -408 -86 -76 -225 -63 -288 27 -38 54 -75 170 -89 281 -6 52 -13 96
-14 98 -1 1 -14 -3 -29 -9 -31 -15 -78 -104 -101 -194 -39 -155 1 -389 105
-613 111 -236 284 -466 604 -804 89 -93 171 -186 184 -206 12 -20 32 -68 43
-105 82 -265 -117 -527 -400 -527 -175 0 -316 100 -412 292 -41 82 -45 80 -73
-30 -60 -230 -39 -511 89 -1217 72 -395 80 -452 95 -655 6 -80 24 -262 40
-405 56 -497 62 -742 25 -992 -67 -466 -407 -1212 -673 -1481 -87 -88 -180
-142 -244 -142 -72 0 -137 80 -183 224 l-23 69 30 111 c65 247 90 314 213 566
126 260 174 378 220 536 92 316 68 580 -70 789 -40 60 -141 175 -154 175 -10
0 -29 -150 -41 -330 -22 -332 -37 -403 -131 -638 -67 -169 -138 -317 -239
-497 -107 -191 -288 -500 -400 -680 -48 -77 -100 -165 -115 -195 -61 -121 -91
-254 -79 -354 5 -50 12 -65 46 -102 49 -53 107 -76 247 -98 159 -26 242 -70
281 -152 20 -41 21 -50 10 -87 -38 -128 -201 -258 -529 -422 -287 -144 -586
-257 -882 -335 -107 -28 -223 -59 -259 -69 -36 -10 -105 -26 -155 -35 -49 -10
-164 -35 -255 -56 -153 -36 -625 -128 -855 -166 -126 -21 -359 -23 -487 -5
-120 17 -228 8 -508 -45 -181 -35 -209 -38 -390 -38 -125 -1 -209 3 -233 11
-42 13 -324 6 -310 -8 4 -4 60 -31 123 -59 320 -145 479 -179 670 -145 188 33
287 45 397 45 111 0 256 -15 281 -29 8 -5 -56 -22 -150 -40 -189 -38 -421 -91
-416 -96 2 -2 78 -11 168 -21 256 -26 517 -13 1220 61 502 52 604 59 900 58
385 -1 781 -42 980 -103 232 -71 421 -106 504 -95 89 11 120 37 184 154 84
151 182 230 287 231 72 0 114 -26 148 -91 38 -75 46 -178 40 -506 -6 -288 0
-361 38 -436 53 -102 203 -114 340 -26 237 154 453 527 804 1389 37 91 76 183
88 205 28 56 109 175 184 272 34 45 63 87 63 93 0 20 -48 30 -98 20 -194 -36
-524 -259 -609 -410 -14 -25 -36 -62 -49 -82 -83 -131 -187 -44 -187 157 -1
352 285 675 728 823 240 80 476 112 820 112 421 0 519 -20 572 -120 43 -81 28
-159 -72 -370 -63 -132 -135 -353 -171 -523 -8 -39 -19 -177 -24 -313 -15
-374 -45 -489 -306 -1144 -201 -508 -266 -725 -268 -895 -2 -152 7 -158 57
-40 170 399 407 734 577 814 95 45 99 44 88 -31 -22 -155 51 -454 150 -617 24
-39 20 -46 42 84 36 218 162 532 327 813 30 51 75 139 99 195 25 56 95 198
155 316 171 331 279 503 390 625 l54 59 -70 -5 c-96 -8 -159 -34 -305 -128
-159 -103 -219 -131 -293 -138 l-60 -5 6 47 c8 59 25 92 102 196 174 235 348
540 505 880 446 966 814 2199 954 3197 49 347 60 490 60 823 1 341 -5 410 -55
650 -115 550 -123 606 -123 840 -1 304 33 486 189 1025 100 342 115 436 115
689 -1 362 -77 652 -226 862 -45 64 -120 136 -165 160 l-27 13 -6 -132 c-32
-648 -40 -714 -117 -952 -62 -197 -182 -450 -358 -760 -114 -201 -185 -344
-226 -455 -25 -68 -27 -88 -27 -205 0 -88 5 -154 17 -205 19 -80 65 -192 92
-222 23 -26 12 -32 -60 -32 -109 0 -171 48 -233 179 -94 200 -111 618 -38 953
14 64 61 288 105 497 108 515 170 782 236 1009 l56 191 5 196 c10 433 -62 792
-183 913 -48 48 -97 60 -165 40 -46 -14 -67 -30 -169 -134 -156 -158 -245
-202 -346 -168 -36 12 -44 21 -80 95 -65 133 -106 163 -217 163 -135 0 -246
-44 -379 -150 -94 -75 -167 -161 -279 -326 -199 -297 -225 -431 -108 -559 53
-59 129 -110 348 -235 234 -134 329 -219 395 -353 87 -176 84 -342 -9 -616
-65 -192 -71 -236 -70 -546 0 -320 17 -492 84 -895 95 -563 137 -1130 119
-1581 -13 -328 -46 -555 -114 -784 -66 -223 -70 -266 -67 -677 3 -382 -1 -437
-40 -558 -36 -113 -92 -209 -257 -445 -285 -407 -451 -604 -563 -669 -86 -50
-85 -31 5 94 249 348 396 685 457 1047 26 150 23 241 -10 413 -19 93 -23 151
-24 300 -1 216 9 280 90 595 103 407 137 620 156 985 9 166 9 286 1 460 -11
227 -13 244 -67 495 -93 438 -128 671 -147 971 -23 357 23 674 128 880 19 38
46 91 60 118 35 67 49 159 34 213 -15 55 -64 118 -123 159 -26 18 -98 49 -160
70 -161 53 -223 86 -299 163 -52 53 -77 89 -122 181 -78 157 -101 253 -95 389
8 154 47 252 183 456 76 114 114 158 351 413 78 83 153 170 167 194 62 106 72
243 28 359 -37 98 -41 99 -83 25z m848 -4106 c8 -47 35 -163 59 -258 42 -168
44 -174 91 -228 27 -31 64 -75 82 -98 18 -22 72 -73 119 -111 75 -61 92 -80
128 -150 22 -44 67 -128 98 -186 48 -88 62 -126 83 -225 32 -148 28 -209 -25
-453 -49 -221 -57 -229 -177 -172 -54 25 -63 34 -74 68 -7 21 -36 83 -65 139
-39 73 -67 148 -106 280 -44 152 -88 322 -105 412 -2 12 -10 22 -18 22 -17 0
-26 52 -26 150 0 60 -8 100 -40 200 -86 271 -100 337 -100 466 0 77 6 136 15
169 9 28 21 68 27 90 l12 40 4 -35 c1 -19 10 -73 18 -120z"/>
<path d="M17288 23693 l-1258 -3 0 -155 0 -155 115 0 115 0 0 -190 0 -190 191
0 192 0 -5 -299 -5 -299 51 -6 c28 -3 81 -6 119 -6 l67 0 0 -385 0 -385 -95 0
-95 0 0 -320 0 -320 95 0 95 0 0 -195 0 -195 -95 0 -95 0 0 -1173 0 -1172
-106 -2 c-59 -1 -108 -4 -110 -6 -2 -2 -7 -562 -11 -1245 l-8 -1242 -65 83
c-35 45 -308 357 -606 692 -297 336 -719 813 -938 1060 -218 248 -402 454
-409 459 -9 6 -32 -4 -70 -29 l-56 -37 -82 86 c-76 81 -84 86 -123 87 -104 1
-103 1 -261 184 -81 94 -198 225 -261 292 -63 67 -114 124 -114 126 0 3 34 64
76 136 l76 131 -73 88 c-211 252 -512 590 -685 770 l-109 113 -128 -45 c-70
-26 -136 -46 -146 -46 -22 0 -94 75 -241 251 -58 68 -135 155 -171 194 l-67
69 -53 -35 c-60 -40 -120 -72 -123 -67 -14 18 -76 141 -76 149 0 6 29 41 63
77 83 87 97 109 97 151 0 46 0 46 -575 527 -264 221 -593 498 -730 616 l-250
215 -9 -49 c-6 -30 -5 -52 0 -56 5 -4 54 -56 109 -117 55 -60 147 -158 205
-216 58 -58 173 -178 255 -266 83 -88 271 -288 418 -446 148 -157 269 -287
270 -290 1 -2 -105 -113 -236 -248 l-238 -244 -23 29 c-42 52 -48 94 -41 291
7 171 6 184 -13 229 l-21 47 -63 -52 c-35 -29 -88 -68 -118 -87 l-54 -35 -100
104 c-55 57 -194 214 -310 349 -116 134 -253 289 -305 342 l-93 98 -149 0
c-82 0 -149 -2 -149 -5 0 -15 94 -188 173 -320 241 -400 770 -1194 879 -1319
50 -57 80 -47 186 61 l83 85 37 -43 c20 -24 63 -73 94 -109 32 -36 58 -67 58
-70 0 -3 -19 -17 -43 -32 -23 -15 -55 -38 -72 -52 l-30 -25 60 -62 c35 -36 55
-63 48 -66 -7 -2 -50 -23 -97 -46 l-85 -42 241 -270 c132 -148 266 -301 297
-340 30 -38 94 -110 142 -160 47 -49 103 -112 124 -140 20 -27 76 -93 124
-145 48 -52 200 -223 338 -380 138 -157 289 -325 334 -373 l84 -88 56 86 57
86 70 -78 c39 -43 114 -131 167 -197 l95 -118 -30 -41 -30 -41 89 -91 89 -90
-53 -59 -54 -60 42 -46 c23 -25 175 -192 338 -371 388 -426 815 -906 1124
-1264 138 -160 275 -317 306 -350 31 -33 140 -157 243 -275 103 -118 193 -219
200 -224 8 -6 30 4 63 28 l51 37 100 -113 c56 -62 167 -194 247 -293 81 -99
151 -184 156 -189 5 -6 41 22 91 70 138 133 139 134 251 134 52 0 102 -3 111
-6 13 -5 16 -24 16 -100 l0 -94 313 -2 312 -3 -60 -32 c-116 -61 -131 -58 264
-58 198 0 357 3 353 6 -4 3 -52 23 -107 45 l-100 39 373 3 372 2 0 115 0 115
-40 0 -40 0 0 -75 0 -75 -745 0 -746 0 3 58 3 57 152 5 c83 3 154 8 158 12 4
4 -13 12 -36 18 -24 6 -53 14 -64 17 -11 3 -78 9 -150 12 -127 6 -130 7 -129
29 0 12 1 166 2 343 l2 321 138 -4 c124 -3 141 -5 182 -28 24 -14 50 -36 57
-50 9 -18 13 -86 13 -236 0 -116 3 -232 6 -258 l7 -46 153 0 154 0 0 280 0
280 40 0 40 0 0 -290 0 -290 163 2 162 3 6 185 c4 102 7 229 8 283 l1 97 40 0
40 0 0 -319 0 -320 43 -6 c23 -3 73 -5 112 -3 l70 3 7 40 c4 22 12 135 18 250
16 299 14 290 53 302 30 9 35 6 78 -39 62 -66 83 -65 161 10 33 31 106 110
160 175 55 65 102 116 105 114 9 -10 -20 -94 -49 -142 -46 -75 -119 -155 -223
-246 l-94 -81 52 -71 c28 -40 61 -87 74 -104 13 -18 31 -33 40 -33 8 0 108 94
222 208 113 114 217 217 230 228 l24 19 -18 -35 c-73 -143 -279 -382 -365
-422 -27 -13 -49 -27 -50 -31 0 -9 152 -197 160 -197 3 1 23 24 45 52 22 29
92 106 155 173 110 115 170 182 273 306 l46 55 -96 85 c-53 46 -124 105 -159
131 -34 26 -109 91 -166 146 -97 94 -284 252 -297 252 -3 0 -21 -9 -38 -20
-31 -18 -33 -24 -33 -73 0 -50 -12 -83 -51 -136 -13 -17 -24 -21 -45 -18 -29
4 -29 4 -5 12 l23 8 -7 120 c-4 65 -4 195 0 288 l8 168 61 -46 c33 -26 95 -77
136 -113 41 -37 179 -154 305 -261 244 -206 378 -329 512 -472 70 -75 81 -92
73 -108 -15 -27 -50 -32 -100 -15 -41 14 -47 14 -88 -4 l-44 -20 52 -42 c116
-95 134 -109 145 -106 6 2 63 61 126 133 62 71 167 186 232 255 66 69 136 150
157 180 21 30 63 83 94 118 31 35 162 186 290 335 443 516 622 723 776 897
203 230 346 397 469 549 l100 125 -46 54 -46 54 60 61 c33 34 92 100 130 147
39 47 85 99 103 115 18 17 59 64 90 107 l57 76 44 -45 c74 -75 62 -81 206 95
250 306 645 762 1022 1177 l81 90 -96 96 -95 96 87 94 c80 87 331 376 415 478
l37 44 83 -64 c46 -36 89 -68 96 -72 7 -4 31 18 62 58 42 54 51 71 51 105 0
38 8 51 117 173 64 73 143 160 176 194 l60 61 -7 64 c-22 196 -328 1747 -355
1795 -4 7 -202 -207 -508 -550 -276 -309 -513 -573 -526 -587 -17 -19 -46 -30
-113 -44 l-90 -19 -57 -86 -57 -86 62 -62 61 -62 -44 -53 c-81 -99 -213 -252
-357 -416 l-144 -163 -60 53 c-33 29 -77 67 -97 85 l-38 32 -144 -161 c-79
-89 -243 -272 -363 -407 -226 -253 -646 -740 -750 -869 -47 -58 -57 -75 -45
-82 8 -5 38 -28 67 -51 46 -37 51 -44 39 -58 -8 -9 -89 -106 -182 -216 -92
-110 -171 -200 -174 -200 -3 0 -47 21 -97 47 l-91 47 -83 -106 c-354 -451
-1153 -1352 -1626 -1832 l-211 -215 -7 384 c-3 212 -5 724 -5 1138 1 414 0
755 -3 758 -3 3 -63 8 -132 11 l-126 6 0 1169 0 1168 -95 0 -95 0 0 195 0 195
95 0 95 0 0 320 0 320 -95 0 -95 0 0 385 0 385 105 0 105 0 0 305 0 305 200 0
200 0 0 190 0 190 115 0 115 0 0 160 c0 160 0 160 -22 158 -13 -2 -589 -4
-1280 -5z m1222 -163 l0 -80 -1200 0 -1200 0 0 80 0 80 1200 0 1200 0 0 -80z
m-1314 -177 l810 -6 22 -81 c12 -45 22 -85 22 -91 -1 -5 -18 -29 -39 -53 l-37
-43 -820 0 -819 -1 -3 147 -3 147 28 -6 c16 -4 393 -9 839 -13z m685 -370 c18
-18 -65 -100 -220 -216 -138 -103 -228 -187 -258 -238 l-17 -29 -332 0 -331 0
-7 77 c-8 105 -8 408 2 417 12 13 1149 3 1163 -11z m-211 -688 l0 -105 -58 6
c-45 5 -66 2 -92 -11 -48 -25 -144 -118 -181 -176 -17 -27 -32 -49 -34 -49 -1
0 -21 28 -44 63 -52 81 -82 108 -155 142 -77 36 -124 79 -152 140 -43 91 -62
84 259 88 155 1 321 3 370 5 l87 2 0 -105z m6299 -1501 c1 -65 -2 -84 -16 -95
-9 -8 -68 -75 -132 -149 -196 -228 -305 -324 -384 -337 -42 -6 -109 8 -175 40
-57 26 -423 300 -472 352 l-35 37 70 -5 c41 -3 123 -22 198 -46 169 -53 264
-67 362 -52 163 24 294 115 433 301 30 41 74 97 96 124 l41 50 6 -70 c4 -38 7
-106 8 -150z m-4 -537 c-121 -142 -145 -172 -170 -219 -23 -42 -30 -70 -35
-143 l-6 -90 -47 94 c-65 131 -64 153 11 229 31 32 107 102 167 157 l110 98 3
-42 c3 -37 -2 -48 -33 -84z m-6179 -49 c-17 -314 -26 -597 -26 -868 0 -338
-11 -490 -45 -641 -44 -200 -115 -302 -234 -340 -85 -27 -212 -35 -293 -19
-105 20 -107 24 -48 77 60 54 65 65 85 181 45 257 -14 1390 -86 1640 -10 37
-19 73 -19 79 0 10 73 13 336 13 l337 0 -7 -122z m-815 -199 c12 -12 30 -41
40 -65 42 -93 51 -765 14 -1034 -17 -125 -71 -357 -88 -378 -5 -7 -24 -12 -41
-10 -61 6 -60 -13 -60 785 l-1 723 58 0 c45 0 62 -5 78 -21z m5121 -309 c509
-435 798 -700 854 -785 15 -23 14 -25 -27 -62 -567 -503 -868 -830 -991 -1073
-24 -47 -44 -87 -45 -89 -2 -2 -49 27 -105 64 -254 169 -652 493 -972 792
l-79 74 25 27 c60 64 341 389 452 522 283 339 565 639 635 675 25 13 52 20 59
16 7 -4 94 -76 194 -161z m-9637 28 c-13 -142 -38 -268 -91 -455 -6 -21 -3
-23 32 -23 22 0 133 12 249 26 l209 27 21 -28 c165 -230 318 -397 428 -465 31
-19 56 -39 57 -44 1 -20 -156 -296 -237 -418 -100 -151 -140 -227 -149 -288
l-7 -45 46 44 c26 25 103 132 173 238 102 155 130 191 140 181 6 -7 45 -52 85
-99 41 -47 125 -144 188 -215 91 -103 162 -192 237 -292 1 -2 51 35 110 82 59
47 109 85 110 83 15 -18 134 -179 134 -181 0 -5 -503 -471 -580 -538 -41 -36
-108 -91 -149 -122 l-74 -57 -25 23 c-65 60 -263 285 -341 389 -87 114 -161
244 -161 281 0 57 -78 15 -170 -94 -35 -40 -66 -77 -71 -82 -5 -6 -21 2 -40
20 -59 55 -286 310 -504 564 -255 297 -347 401 -506 565 -163 170 -399 469
-399 507 0 71 160 141 545 238 184 47 278 78 470 154 132 52 248 95 259 95 16
1 17 -5 11 -71z m8403 -1420 c26 -23 110 -103 187 -178 77 -75 192 -185 255
-244 l114 -109 -74 5 c-41 3 -97 13 -124 23 -90 31 -289 124 -367 171 -78 48
-220 160 -226 180 -4 12 163 194 178 194 5 0 31 -19 57 -42z m-3106 -171 c101
-24 126 -40 154 -102 39 -85 53 -174 65 -430 12 -253 6 -787 -12 -989 -22
-263 -42 -323 -119 -366 -42 -23 -55 -25 -171 -25 -123 1 -127 1 -164 29 -20
16 -45 42 -56 60 -29 47 -61 218 -80 421 -14 155 -13 1037 1 1153 14 107 43
169 93 198 l38 21 -278 6 c-153 4 -336 7 -408 8 -93 0 -123 3 -106 10 55 22
178 27 566 25 331 -3 423 -6 477 -19z m-897 -167 c58 -22 57 -9 48 -849 -9
-756 -9 -767 -30 -814 -22 -47 -64 -77 -109 -77 -36 0 -86 34 -107 74 l-22 41
-3 750 c-2 413 0 769 3 792 3 23 15 53 26 67 19 24 27 26 94 26 41 0 85 -4
100 -10z m-2402 -457 c145 -220 265 -382 405 -550 116 -138 167 -186 306 -290
175 -131 186 -142 186 -178 0 -18 -9 -44 -20 -58 -11 -14 -145 -144 -297 -289
-153 -145 -351 -334 -442 -422 l-165 -158 -46 50 c-25 28 -166 184 -315 346
-148 163 -299 331 -334 374 -34 42 -105 124 -156 182 -108 122 -164 192 -223
274 -40 57 -42 61 -25 76 274 255 557 507 664 592 103 82 320 237 331 238 4 0
63 -84 131 -187z m5882 137 c169 -11 218 -25 293 -81 182 -136 338 -295 521
-529 l89 -115 -195 -198 c-424 -434 -727 -778 -1397 -1584 l-267 -323 -40 0
c-38 0 -54 11 -237 167 -318 270 -464 420 -644 659 l-70 94 -54 0 c-89 0 -151
-77 522 641 508 541 798 863 1053 1167 l94 112 96 0 c53 0 159 -5 236 -10z
m-5143 -1707 c-30 -43 -78 -141 -156 -323 -40 -91 -89 -191 -109 -223 l-38
-59 -32 21 c-18 11 -73 47 -124 78 -50 32 -89 60 -86 63 31 31 559 477 562
475 2 -2 -6 -16 -17 -32z m1258 -770 l0 -348 -95 3 -95 4 0 -356 0 -356 -27
-17 c-16 -10 -52 -35 -81 -56 l-52 -38 -33 38 c-17 20 -77 87 -131 147 -185
207 -285 342 -301 409 -4 15 -10 29 -14 31 -4 3 -37 -17 -73 -44 -36 -27 -80
-56 -97 -64 -31 -17 -107 -21 -128 -8 -8 5 113 117 355 327 202 176 412 363
467 415 55 53 120 112 145 130 25 19 70 56 99 82 30 26 56 48 58 48 2 0 3
-156 3 -347z m1487 -226 c84 -39 152 -72 150 -73 -1 -1 -169 2 -372 6 -204 5
-544 12 -757 16 l-388 7 0 65 0 65 607 -7 607 -7 153 -72z"/>
<path d="M5645 23337 c-113 -38 -219 -116 -325 -239 -82 -95 -370 -524 -453
-675 -59 -106 -164 -351 -190 -444 -27 -94 -47 -219 -47 -294 0 -148 56 -388
113 -485 11 -19 44 -64 72 -100 50 -62 75 -101 75 -115 0 -11 -63 7 -114 32
-65 33 -133 98 -210 202 -76 103 -94 136 -139 267 -62 179 -107 443 -107 634
0 47 -3 115 -6 152 l-7 67 -34 -44 c-88 -116 -153 -277 -180 -448 -22 -143
-23 -413 -1 -542 10 -55 22 -136 29 -180 6 -44 38 -186 70 -315 73 -291 78
-340 50 -482 -44 -214 -116 -435 -242 -734 -72 -173 -89 -241 -89 -365 0 -172
49 -301 206 -544 295 -456 335 -527 383 -670 16 -49 42 -146 56 -215 25 -117
27 -150 35 -520 5 -217 14 -435 20 -485 23 -182 66 -349 129 -500 121 -288
105 -260 225 -380 157 -156 201 -247 261 -540 74 -363 102 -436 293 -763 105
-180 143 -237 221 -334 25 -32 72 -106 103 -165 l57 -107 20 44 c16 34 21 66
21 135 0 111 -25 221 -116 497 -109 334 -215 780 -308 1293 -25 138 -57 291
-71 340 -36 125 -38 233 -6 298 31 63 84 99 157 105 123 10 160 -40 203 -283
20 -111 148 -632 306 -1237 46 -180 107 -426 134 -545 57 -249 86 -354 130
-468 97 -249 240 -870 325 -1405 77 -480 138 -899 143 -980 10 -148 -29 -291
-101 -377 -33 -40 -64 -42 -159 -13 -171 53 -309 200 -510 541 -128 216 -187
419 -173 589 8 101 19 137 79 264 68 147 72 189 22 271 -55 90 -99 140 -199
224 -200 167 -320 297 -421 456 -21 33 -154 292 -296 575 -238 475 -531 1046
-616 1199 -31 55 -37 61 -46 46 -16 -29 -20 -229 -8 -365 30 -330 111 -758
236 -1245 214 -838 487 -1564 722 -1925 38 -58 86 -138 106 -179 98 -194 284
-415 727 -866 141 -143 316 -332 390 -420 269 -321 392 -442 570 -560 52 -35
136 -79 185 -98 204 -79 358 -163 492 -268 43 -34 182 -166 308 -294 246 -247
376 -362 520 -457 454 -301 1029 -391 1850 -288 324 41 494 77 907 190 215 60
384 95 526 110 83 9 129 8 240 -4 438 -50 868 -48 1234 5 334 48 563 141 646
263 17 27 32 52 32 57 0 13 -207 11 -455 -6 -495 -33 -608 -37 -812 -26 -180
9 -209 13 -318 46 -240 70 -457 164 -608 261 -37 24 -70 44 -73 44 -3 0 -2
-35 1 -78 10 -110 -4 -155 -68 -215 -64 -61 -78 -68 -212 -105 -284 -79 -506
-106 -795 -99 -123 3 -241 12 -295 21 -364 66 -639 202 -787 389 l-38 49 -143
3 c-87 1 -170 8 -215 19 -267 60 -522 205 -723 412 -84 87 -195 251 -331 489
-125 219 -238 490 -293 701 -161 616 -109 1295 144 1873 56 129 75 159 206
326 69 88 74 104 42 147 -74 96 -117 324 -117 619 0 83 3 101 23 129 33 49 78
72 156 78 119 8 187 -6 1196 -247 530 -127 827 -165 1145 -150 119 6 276 26
267 35 -2 2 -143 33 -313 69 -669 141 -724 162 -938 365 l-74 71 -74 -23 c-66
-21 -91 -23 -263 -22 -159 1 -212 5 -325 27 -74 14 -159 34 -187 46 -171 67
-339 179 -668 441 -249 198 -350 269 -433 300 -46 18 -50 18 -88 1 -72 -33
-107 -81 -141 -194 -28 -96 8 -237 164 -632 131 -332 167 -433 203 -577 53
-214 56 -395 7 -502 -44 -95 -142 -166 -229 -166 -267 0 -595 807 -914 2248
-90 410 -123 537 -279 1081 -279 978 -361 1378 -372 1833 -8 323 1 391 120
848 116 446 195 918 227 1370 5 69 19 183 30 255 57 368 72 866 37 1185 -51
459 -174 830 -374 1128 -84 125 -155 194 -228 222 -73 27 -184 35 -240 17z"/>
<path d="M6660 21087 l-24 -42 -6 -500 -6 -500 -37 -195 c-21 -107 -47 -241
-58 -298 -14 -76 -31 -127 -65 -194 -162 -322 -232 -722 -205 -1161 16 -265
40 -404 130 -762 44 -176 141 -581 216 -900 264 -1126 412 -1676 575 -2135 28
-80 80 -228 115 -330 35 -102 80 -224 100 -272 76 -180 181 -308 253 -308 29
0 70 50 81 100 38 167 -26 418 -211 825 -177 387 -246 646 -235 877 5 128 29
209 81 285 41 59 73 83 125 93 137 25 313 -78 652 -380 311 -278 375 -332 496
-424 239 -181 411 -256 583 -256 63 0 274 34 290 47 3 3 -3 9 -13 14 -47 27
-168 134 -214 190 -336 414 -462 589 -577 795 -155 280 -274 614 -341 964 -45
236 -64 290 -280 795 -215 504 -269 659 -311 905 -20 116 -14 422 11 570 21
125 67 298 110 413 61 162 57 191 -18 142 -104 -68 -283 -276 -427 -495 -138
-209 -184 -255 -236 -231 -57 26 -84 121 -84 303 0 191 26 327 109 557 42 119
48 187 22 294 -24 100 -29 112 -161 342 -54 94 -125 223 -158 287 -34 64 -79
144 -100 176 -29 46 -47 93 -76 203 -54 206 -67 249 -74 249 -4 0 -18 -19 -32
-43z"/>
<path d="M29672 14804 c-145 -39 -276 -174 -392 -404 -23 -46 -125 -278 -227
-515 -276 -642 -395 -888 -555 -1145 -144 -231 -331 -448 -456 -528 -121 -78
-237 -101 -409 -82 -142 15 -196 31 -271 79 -181 118 -212 196 -212 544 0 97
-5 188 -11 204 -12 37 -31 42 -124 32 -120 -13 -310 -10 -393 7 -100 20 -264
75 -340 113 -121 61 -317 97 -612 111 -113 6 -288 16 -390 22 -312 19 -352 20
-433 8 -44 -6 -85 -14 -93 -17 -41 -15 43 -53 195 -87 63 -15 171 -46 240 -70
69 -24 214 -70 321 -101 377 -112 577 -210 721 -356 277 -281 428 -671 455
-1169 10 -200 -20 -486 -76 -717 -42 -175 -158 -480 -232 -613 -127 -225 -358
-459 -613 -622 -459 -292 -823 -410 -1225 -395 -192 7 -352 41 -534 113 -17 6
-18 3 -11 -37 16 -97 70 -170 180 -242 l60 -39 -90 5 c-198 13 -368 88 -728
320 -76 49 -153 93 -170 98 -340 98 -1358 19 -1738 -136 -76 -30 -149 -73
-149 -85 0 -6 72 -10 179 -10 386 0 946 -47 1136 -96 33 -9 139 -49 235 -89
200 -84 267 -104 470 -139 1018 -176 1950 -178 2822 -5 446 88 1008 349 1623
754 503 332 939 725 1148 1038 107 159 172 317 184 445 l6 63 -134 -87 c-74
-47 -168 -103 -210 -124 -76 -39 -198 -84 -205 -77 -12 12 76 152 188 301 70
94 144 202 163 242 31 62 71 202 61 212 -9 8 -88 -41 -176 -109 -129 -100
-162 -111 -338 -117 -78 -2 -158 -1 -178 3 l-37 6 76 49 c97 62 194 159 338
337 168 208 216 316 359 797 33 111 85 273 115 361 31 88 92 284 136 435 44
151 103 349 131 440 163 531 325 879 466 1000 l45 38 -35 15 c-46 19 -131 37
-171 36 -18 0 -56 -7 -85 -15z"/>
<path d="M8572 13985 c-167 -38 -232 -116 -182 -219 53 -111 237 -211 475
-260 377 -78 1064 -89 1380 -23 494 104 1064 133 2060 106 220 -6 420 -9 445
-7 l45 3 -102 52 c-344 175 -793 217 -1813 169 -409 -20 -818 -18 -960 4 -41
6 -145 29 -230 50 -380 93 -614 130 -865 136 -143 3 -206 0 -253 -11z"/>
<path d="M19363 12448 c-21 -3 -51 -11 -66 -17 -16 -6 -55 -11 -88 -11 -73 0
-184 -22 -306 -61 -91 -29 -93 -31 -150 -100 -32 -38 -73 -97 -90 -130 l-33
-61 0 -314 c0 -353 -2 -343 75 -448 91 -126 103 -136 190 -159 80 -21 84 -21
1635 -24 855 -1 1592 -5 1638 -9 l82 -6 2 -121 c6 -397 4 -437 -17 -442 -11
-2 -101 -6 -200 -10 -99 -3 -306 -12 -460 -21 -396 -21 -1252 -30 -1485 -15
-486 32 -716 98 -746 216 -3 12 2 39 10 60 l16 38 -257 -6 c-225 -5 -487 -24
-605 -43 l-38 -6 6 -101 c4 -56 12 -135 20 -176 14 -77 65 -201 93 -224 18
-16 112 -41 245 -64 81 -15 291 -17 1905 -20 1277 -3 1824 -1 1845 7 17 6 79
22 139 35 59 13 132 37 163 52 103 50 190 175 215 308 25 130 -24 713 -66 795
-29 56 -109 93 -262 124 -191 38 -248 39 -1767 45 l-1490 6 -29 55 -29 55 4
198 c3 108 7 199 10 202 21 22 214 25 1429 25 l1319 0 26 -40 c27 -40 27 -42
21 -160 -4 -66 -5 -120 -3 -120 3 0 107 24 233 54 125 30 284 66 353 80 69 15
153 36 188 47 59 20 62 22 62 53 0 18 -6 54 -14 81 -52 172 -241 298 -540 362
-75 16 -200 17 -1613 18 -842 0 -1548 -3 -1570 -7z"/>
<path d="M11670 12416 c0 -7 535 -825 855 -1306 166 -250 378 -570 471 -710
93 -140 171 -258 174 -262 3 -4 30 0 60 9 45 14 102 17 313 18 l258 0 33 45
c44 61 531 764 641 925 239 351 416 593 437 599 37 9 38 8 38 -40 0 -50 -18
-22 489 -767 407 -596 447 -656 503 -729 l57 -75 58 21 c53 19 79 21 295 21
l236 0 50 65 c68 90 1042 1558 1132 1705 133 219 235 344 352 430 l56 42 -66
7 c-82 7 -759 8 -787 0 -11 -3 -34 -29 -49 -57 -30 -54 -52 -88 -503 -817
-148 -239 -293 -474 -322 -522 -42 -70 -59 -88 -77 -88 -18 0 -48 38 -160 203
-75 111 -208 303 -294 427 -86 124 -179 258 -206 297 -27 40 -123 181 -213
312 l-165 239 -125 8 c-171 9 -538 -1 -556 -16 -14 -12 -155 -217 -460 -670
-87 -129 -212 -311 -278 -405 -65 -93 -146 -213 -179 -267 -39 -64 -71 -105
-94 -119 -19 -12 -36 -20 -38 -18 -1 2 -35 59 -74 126 -40 67 -134 216 -210
330 -76 114 -189 289 -252 388 -123 196 -290 449 -353 534 -22 30 -43 68 -47
85 l-6 31 -497 3 c-273 1 -497 0 -497 -2z"/>
<path d="M3121 7865 l-32 -45 437 -1363 c240 -749 441 -1370 446 -1379 8 -16
29 -18 232 -18 l224 0 35 103 c19 56 138 410 265 787 127 377 243 721 258 765
l28 80 287 -865 287 -865 220 -3 c203 -2 222 -1 230 15 5 10 206 631 446 1380
l438 1363 -33 45 -32 45 -253 0 c-231 0 -254 -2 -262 -17 -5 -10 -118 -384
-252 -830 -134 -447 -247 -809 -251 -805 -4 4 -130 372 -280 817 -150 446
-277 816 -282 823 -7 9 -62 12 -235 10 l-225 -3 -272 -828 c-150 -456 -275
-830 -277 -832 -2 -2 -104 314 -226 703 -122 389 -241 764 -263 835 l-40 127
-293 0 -293 0 -32 -45z"/>
<path d="M30580 7900 c-240 -20 -364 -88 -440 -243 -63 -131 -72 -189 -77
-540 -5 -316 2 -442 33 -562 38 -145 105 -235 217 -290 136 -67 138 -67 970
-72 l747 -5 0 -244 0 -244 -735 0 -735 0 0 129 0 129 -39 31 -39 31 -254 -63
-253 -63 1 -175 c1 -404 107 -573 400 -636 71 -16 164 -18 919 -18 936 0 926
0 1070 69 90 43 140 92 181 180 63 135 69 192 69 646 0 433 -3 466 -55 603
-57 151 -185 238 -395 267 -40 5 -379 10 -792 10 l-723 0 0 235 0 235 673 -2
672 -3 3 -127 3 -127 40 -29 40 -30 197 58 c108 31 224 65 256 74 l59 17 -6
157 c-14 369 -118 525 -397 588 -66 15 -159 17 -795 19 -396 2 -763 -1 -815
-5z"/>
<path d="M8263 7408 c-5 -7 -258 -516 -562 -1131 l-552 -1118 29 -47 29 -47
244 0 244 0 40 80 c22 44 75 153 117 243 l77 162 573 0 574 0 115 -242 115
-243 273 0 274 0 29 47 30 48 -562 1117 c-309 615 -567 1124 -572 1131 -8 9
-72 12 -258 12 -186 0 -250 -3 -257 -12z m326 -811 c46 -100 119 -257 162
-349 l78 -168 -324 0 -323 0 156 350 c86 193 159 350 162 350 3 0 43 -83 89
-183z"/>
<path d="M10926 7390 l-36 -32 0 -1118 0 -1118 35 -31 36 -31 214 0 214 0 36
31 35 31 0 389 0 389 169 0 168 0 387 -420 387 -420 334 0 c184 0 336 4 339 8
2 4 14 31 25 58 l19 51 -376 359 -376 359 79 8 c272 25 372 72 440 207 57 112
60 142 60 550 0 407 -4 439 -60 550 -47 94 -144 162 -270 191 -35 8 -314 13
-936 16 l-887 4 -36 -31z m1615 -509 c17 -21 19 -41 19 -221 0 -180 -2 -200
-19 -221 l-19 -24 -531 -3 -531 -3 0 251 0 251 531 -3 531 -3 19 -24z"/>
<path d="M14498 7410 c-173 -14 -296 -68 -355 -156 -33 -48 -69 -150 -82 -234
-16 -97 -13 -568 3 -660 39 -211 129 -311 321 -356 60 -14 165 -17 708 -21
l637 -5 0 -189 0 -189 -615 0 -615 0 0 100 c0 98 -1 102 -27 125 -16 14 -36
27 -46 31 -10 3 -117 -16 -239 -43 l-221 -48 6 -160 c6 -170 19 -242 63 -332
32 -66 109 -136 179 -162 118 -44 152 -46 915 -46 641 0 733 2 797 17 188 44
275 131 319 323 17 70 19 122 19 405 0 277 -3 335 -18 395 -37 146 -90 221
-191 270 -114 56 -137 57 -834 62 l-642 5 2 171 3 172 573 3 572 2 0 -90 c0
-87 1 -92 28 -115 15 -14 35 -27 44 -30 16 -6 373 83 427 106 l24 10 -7 122
c-18 326 -98 445 -336 503 -68 16 -136 18 -695 20 -341 1 -664 -1 -717 -6z"/>
<path d="M17773 7408 c-5 -7 -258 -516 -562 -1131 l-552 -1118 29 -47 29 -47
244 0 244 0 40 80 c22 44 75 153 117 243 l77 162 573 0 574 0 115 -242 115
-243 273 0 274 0 29 47 30 48 -562 1117 c-309 615 -567 1124 -572 1131 -8 9
-72 12 -258 12 -186 0 -250 -3 -257 -12z m326 -811 c46 -100 119 -257 162
-349 l78 -168 -324 0 -323 0 156 350 c86 193 159 350 162 350 3 0 43 -83 89
-183z"/>
<path d="M20426 7390 l-36 -32 0 -1118 0 -1118 35 -31 36 -31 742 0 c408 0
801 5 874 10 263 20 417 100 497 260 49 99 59 175 54 424 -4 179 -8 221 -26
276 -27 84 -66 144 -128 200 l-50 44 58 54 c77 72 115 149 129 267 15 117 5
429 -16 508 -43 164 -129 249 -297 294 -56 15 -162 17 -949 20 l-887 4 -36
-31z m1604 -490 c5 -8 10 -86 10 -172 0 -145 -2 -160 -20 -178 -19 -19 -33
-20 -540 -20 l-520 0 0 195 0 196 530 -3 c459 -3 532 -5 540 -18z m7 -893 c16
-15 18 -40 21 -180 3 -183 -3 -205 -58 -224 -25 -9 -176 -12 -537 -12 l-503
-1 0 220 0 221 530 -3 c492 -3 531 -4 547 -21z"/>
<path d="M23635 7389 l-35 -31 0 -1118 0 -1118 35 -31 36 -31 997 0 998 0 37
38 37 38 0 200 0 200 -33 32 -33 32 -742 0 -742 0 0 210 0 210 408 0 408 0 37
38 37 38 0 180 0 180 -38 37 -38 37 -407 0 -407 0 0 185 0 185 728 0 728 0 37
38 37 38 0 185 0 185 -38 37 -38 37 -987 0 -986 0 -36 -31z"/>
<path d="M26636 7390 l-36 -32 0 -1118 0 -1118 35 -31 36 -31 214 0 214 0 36
31 35 31 0 389 0 389 169 0 168 0 387 -420 387 -420 334 0 c184 0 336 4 339 8
2 4 14 31 25 58 l19 51 -376 359 -376 359 79 8 c272 25 372 72 440 207 57 112
60 142 60 550 0 407 -4 439 -60 550 -47 94 -144 162 -270 191 -35 8 -314 13
-936 16 l-887 4 -36 -31z m1615 -509 c17 -21 19 -41 19 -221 0 -180 -2 -200
-19 -221 l-19 -24 -531 -3 -531 -3 0 251 0 251 531 -3 531 -3 19 -24z"/>
</g>
</svg>
