<svg width="215" height="258" viewBox="0 0 215 258" fill="none" xmlns="http://www.w3.org/2000/svg">
<path fill-rule="evenodd" clip-rule="evenodd" d="M214.956 0.221558H0.788818V257.222H150.705L214.956 192.972V0.221558ZM139.997 246.513H11.4972V10.9299H204.247V182.263H139.997V246.513ZM150.705 192.972H199.814L150.705 242.08V192.972ZM118.58 203.68H32.9138V214.388H118.58V203.68ZM118.58 171.555H32.9138V182.263H118.58V171.555ZM182.83 150.138V139.43H32.9138V150.138H182.83ZM182.83 107.305H139.997V118.013H182.83V107.305ZM118.516 118.013H32.9459L32.9138 109.564C32.8817 101.854 32.8496 92.2704 46.9846 89.0043C62.865 85.3528 60.2201 84.5283 59.3848 82.9756C47.8412 61.6874 51.7819 48.998 55.155 43.3226C59.3099 36.3515 66.8164 32.3466 75.7472 32.3466C84.603 32.3466 92.0559 36.2872 96.2001 43.1727C102.036 52.853 100.58 66.9666 92.1416 82.9327C91.0172 85.0316 90.0535 85.6633 104.124 88.9187C118.634 92.2597 118.602 101.897 118.58 109.65L118.516 118.013ZM43.6222 107.305H107.872C107.797 101.447 107.123 100.601 102.09 99.445C92.934 97.3247 84.6458 95.4186 81.7331 89.0365C80.2125 85.7062 80.5231 81.969 82.6647 77.9105C89.1968 65.5852 90.7817 54.9304 87.023 48.6875C84.0675 43.7831 78.6919 43.0549 75.7472 43.0549C70.6072 43.0549 66.5701 45.0895 64.3642 48.8053C60.5949 55.1232 62.2118 65.7244 68.7974 77.8677C70.9819 81.9047 71.3246 85.6526 69.8147 88.9936C66.9342 95.3972 58.7209 97.2819 50.0364 99.2951C44.4146 100.591 43.6864 101.458 43.6222 107.305ZM182.83 85.8882V75.1799H139.997V85.8882H182.83ZM182.83 43.0549H139.997V53.7632H182.83V43.0549Z" fill="white"/>
</svg>
