<svg width="69" height="69" viewBox="0 0 69 69" fill="none" xmlns="http://www.w3.org/2000/svg">
<path d="M39.2436 30.4358C39.2436 32.6798 38.4843 35.6179 37.3056 37.9214C34.4468 43.5314 28.6271 43.4946 28.6271 37.5248C28.6271 35.2978 29.3921 32.4276 30.5736 30.2148C33.4665 24.7606 39.2436 25.6134 39.2436 30.4358ZM68.376 34.6064C68.376 53.3829 53.1525 68.6064 34.376 68.6064C15.5995 68.6064 0.375977 53.3829 0.375977 34.6064C0.375977 15.8299 15.5995 0.606445 34.376 0.606445C53.1525 0.606445 68.376 15.8299 68.376 34.6064ZM54.2093 31.2234C54.2093 22.0264 46.7548 15.3539 36.484 15.3539C22.4108 15.3539 14.5426 24.2761 14.5426 35.3941C14.5426 45.7981 21.5325 53.8589 34.444 53.8589C41.584 53.8589 46.1286 51.8019 48.9563 50.2096L47.0098 47.4018C44.1141 49.0819 40.632 50.6204 34.9511 50.6204C25.2356 50.6204 18.7076 44.3899 18.7076 35.1136C18.7076 18.9239 36.8438 15.9659 44.814 20.7458C52.2486 25.3981 51.9653 36.5501 46.463 40.8143C43.5333 43.1546 40.2325 43.0781 41.3035 38.6723C41.3035 38.6723 44.7375 25.9534 45.1398 24.5764H41.2751L40.5073 27.2738C39.7196 25.0496 37.8355 23.6046 35.0928 23.6046C29.3751 23.6046 24.5471 29.8096 24.5471 37.1564C24.5471 42.0581 27.134 45.1011 31.2905 45.1011C34.9256 45.1011 36.8155 43.0441 37.9885 41.2109C37.1385 49.4219 54.2093 45.6224 54.2093 31.2234Z" fill="#2DA771"/>
</svg>
