<svg width="54" height="54" viewBox="0 0 54 54" fill="none" xmlns="http://www.w3.org/2000/svg">
<path fill-rule="evenodd" clip-rule="evenodd" d="M44.0742 12.4149C44.0742 14.1714 42.6502 15.5949 40.8942 15.5949C39.1381 15.5949 37.7142 14.1714 37.7142 12.4149C37.7142 10.6585 39.1381 9.23493 40.8942 9.23493C42.6506 9.23493 44.0742 10.6585 44.0742 12.4149ZM26.7485 35.3937C21.8701 35.3937 17.9153 31.439 17.9153 26.5605C17.9153 21.6821 21.8701 17.7274 26.7485 17.7274C31.627 17.7274 35.5817 21.6821 35.5817 26.5605C35.5817 31.439 31.627 35.3937 26.7485 35.3937ZM26.7485 12.9524C19.2329 12.9524 13.1404 19.0449 13.1404 26.5605C13.1404 34.0762 19.2329 40.1687 26.7485 40.1687C34.2642 40.1687 40.3567 34.0762 40.3567 26.5605C40.3567 19.0449 34.2642 12.9524 26.7485 12.9524ZM26.7485 4.83552C33.8244 4.83552 34.6625 4.86243 37.4566 4.98996C40.0404 5.10797 41.4436 5.53942 42.3773 5.90255C43.6141 6.38328 44.4969 6.95759 45.4244 7.88509C46.3519 8.81217 46.9262 9.69495 47.4069 10.9322C47.7697 11.8659 48.2015 13.2691 48.3195 15.8529C48.4471 18.6474 48.474 19.4855 48.474 26.5614C48.474 33.6373 48.4471 34.4753 48.3195 37.2694C48.2015 39.8532 47.7701 41.2565 47.4069 42.1902C46.9262 43.427 46.3519 44.3097 45.4244 45.2373C44.4973 46.1648 43.6145 46.7391 42.3773 47.2198C41.4436 47.5825 40.0404 48.0144 37.4566 48.1324C34.6625 48.2599 33.8244 48.2868 26.7485 48.2868C19.6722 48.2868 18.8341 48.2599 16.0401 48.1324C13.4563 48.0144 12.053 47.5829 11.1193 47.2198C9.88253 46.7391 8.99975 46.1648 8.07225 45.2373C7.14516 44.3102 6.57044 43.4274 6.08972 42.1902C5.727 41.2565 5.29513 39.8532 5.17712 37.2694C5.04959 34.4749 5.02268 33.6369 5.02268 26.5614C5.02268 19.4855 5.04959 18.6474 5.17712 15.8529C5.29513 13.2691 5.72658 11.8659 6.08972 10.9322C6.57044 9.69537 7.14475 8.81259 8.07225 7.88509C8.99933 6.95759 9.88211 6.38328 11.1193 5.90255C12.053 5.53984 13.4563 5.10797 16.0401 4.98996C18.8346 4.86243 19.6726 4.83552 26.7485 4.83552ZM26.7485 0.0605469C19.5517 0.0605469 18.6491 0.0911875 15.8227 0.219961C13.0021 0.348734 11.0754 0.79675 9.39021 1.4518C7.64742 2.12879 6.16963 3.03517 4.69639 4.50841C3.22316 5.98164 2.31678 7.45943 1.63979 9.20222C0.984738 10.8879 0.536723 12.8141 0.407949 15.6347C0.279176 18.4611 0.248535 19.3637 0.248535 26.5605C0.248535 33.7574 0.279176 34.66 0.407949 37.4864C0.536723 40.307 0.984738 42.2332 1.63979 43.9189C2.31678 45.6617 3.22316 47.1395 4.69639 48.6127C6.16963 50.0859 7.64742 50.9919 9.39021 51.6693C11.0759 52.3243 13.0021 52.7724 15.8227 52.9011C18.6491 53.0299 19.5517 53.0605 26.7485 53.0605C33.9454 53.0605 34.848 53.0299 37.6744 52.9011C40.495 52.7724 42.4212 52.3243 44.1069 51.6693C45.8497 50.9919 47.3274 50.0859 48.8007 48.6127C50.2739 47.1395 51.1799 45.6617 51.8573 43.9189C52.5123 42.2332 52.9603 40.307 53.0891 37.4864C53.2179 34.66 53.2485 33.7574 53.2485 26.5605C53.2485 19.3637 53.2179 18.4611 53.0891 15.6347C52.9603 12.8141 52.5123 10.8879 51.8573 9.20222C51.1799 7.45943 50.2739 5.98164 48.8007 4.50841C47.3274 3.03517 45.8497 2.1292 44.1069 1.4518C42.4212 0.79675 40.495 0.348734 37.6744 0.219961C34.848 0.0911875 33.9454 0.0605469 26.7485 0.0605469Z" fill="#2DA771"/>
</svg>
