<svg width="68" height="68" viewBox="0 0 68 68" fill="none" xmlns="http://www.w3.org/2000/svg">
<path fill-rule="evenodd" clip-rule="evenodd" d="M56.2291 15.8509C56.2291 18.1045 54.4021 19.9309 52.1491 19.9309C49.8961 19.9309 48.0691 18.1045 48.0691 15.8509C48.0691 13.5973 49.8961 11.7709 52.1491 11.7709C54.4027 11.7709 56.2291 13.5973 56.2291 15.8509ZM34 45.3332C27.7408 45.3332 22.6668 40.2592 22.6668 34C22.6668 27.7408 27.7408 22.6668 34 22.6668C40.2592 22.6668 45.3332 27.7408 45.3332 34C45.3332 40.2592 40.2592 45.3332 34 45.3332ZM34 16.5405C24.3573 16.5405 16.5405 24.3573 16.5405 34C16.5405 43.6427 24.3573 51.4595 34 51.4595C43.6427 51.4595 51.4595 43.6427 51.4595 34C51.4595 24.3573 43.6427 16.5405 34 16.5405ZM34 6.12637C43.0785 6.12637 44.1538 6.16091 47.7387 6.32453C51.0537 6.47594 52.8541 7.0295 54.052 7.49541C55.6389 8.11219 56.7715 8.84903 57.9615 10.039C59.1515 11.2285 59.8883 12.3611 60.5051 13.9485C60.9705 15.1465 61.5246 16.9469 61.676 20.2619C61.8396 23.8473 61.8742 24.9225 61.8742 34.0011C61.8742 43.0796 61.8396 44.1548 61.676 47.7397C61.5246 51.0547 60.971 52.8551 60.5051 54.0531C59.8883 55.6399 59.1515 56.7726 57.9615 57.9626C56.772 59.1526 55.6394 59.8894 54.052 60.5062C52.8541 60.9716 51.0537 61.5257 47.7387 61.6771C44.1538 61.8407 43.0785 61.8752 34 61.8752C24.9209 61.8752 23.8457 61.8407 20.2608 61.6771C16.9458 61.5257 15.1454 60.9721 13.9474 60.5062C12.3606 59.8894 11.228 59.1526 10.038 57.9626C8.8485 56.7731 8.11113 55.6405 7.49434 54.0531C7.02897 52.8551 6.47487 51.0547 6.32347 47.7397C6.15984 44.1543 6.12531 43.0791 6.12531 34.0011C6.12531 24.9225 6.15984 23.8473 6.32347 20.2619C6.47487 16.9469 7.02844 15.1465 7.49434 13.9485C8.11113 12.3617 8.84797 11.229 10.038 10.039C11.2274 8.84903 12.3601 8.11219 13.9474 7.49541C15.1454 7.03003 16.9458 6.47594 20.2608 6.32453C23.8462 6.16091 24.9215 6.12637 34 6.12637ZM34 0C24.7663 0 23.6082 0.0393125 19.9819 0.204531C16.363 0.36975 13.8911 0.944562 11.7289 1.785C9.49291 2.65359 7.59687 3.8165 5.70669 5.70669C3.8165 7.59687 2.65359 9.49291 1.785 11.7289C0.944562 13.8917 0.36975 16.363 0.204531 19.9819C0.0393125 23.6082 0 24.7663 0 34C0 43.2337 0.0393125 44.3918 0.204531 48.0181C0.36975 51.637 0.944562 54.1083 1.785 56.2711C2.65359 58.5071 3.8165 60.4031 5.70669 62.2933C7.59687 64.1835 9.49291 65.3459 11.7289 66.215C13.8917 67.0554 16.363 67.6302 19.9819 67.7955C23.6082 67.9607 24.7663 68 34 68C43.2337 68 44.3918 67.9607 48.0181 67.7955C51.637 67.6302 54.1083 67.0554 56.2711 66.215C58.5071 65.3459 60.4031 64.1835 62.2933 62.2933C64.1835 60.4031 65.3459 58.5071 66.215 56.2711C67.0554 54.1083 67.6302 51.637 67.7955 48.0181C67.9607 44.3918 68 43.2337 68 34C68 24.7663 67.9607 23.6082 67.7955 19.9819C67.6302 16.363 67.0554 13.8917 66.215 11.7289C65.3459 9.49291 64.1835 7.59687 62.2933 5.70669C60.4031 3.8165 58.5071 2.65412 56.2711 1.785C54.1083 0.944562 51.637 0.36975 48.0181 0.204531C44.3918 0.0393125 43.2337 0 34 0Z" fill="#2DA771"/>
</svg>
