<svg width="85" height="84" viewBox="0 0 85 84" fill="none" xmlns="http://www.w3.org/2000/svg">
<rect x="0.63208" width="84" height="84" rx="42" fill="#F4F5F7"/>
<path d="M26.0681 47.8426V47.8163C26.0681 45.9258 27.504 44.5002 29.4066 44.5002H32.47H35.1321L37.7942 44.5H40.861C42.7628 44.5 44.5072 45.9256 44.5072 47.8161L45.5036 54.5H25.1321L26.0681 47.8426Z" fill="#1D1D1B"/>
<path fill-rule="evenodd" clip-rule="evenodd" d="M49.9232 40.2951C46.9203 40.2951 44.484 37.8779 44.484 34.8969C44.484 31.9175 46.9203 29.5 49.9232 29.5C52.9277 29.5 55.3643 31.9178 55.3643 34.8969C55.3643 37.8779 52.928 40.2951 49.9232 40.2951ZM41.0486 46.0632V46.0349C41.0486 45.6109 41.1093 45.2086 41.2222 44.8373H41.4104C43.2326 44.8373 44.6073 46.2516 44.6073 48.1271L44.6115 48.1774L45.2985 53.25H40.1321L41.0486 46.0632ZM42.201 43.2641L42.3091 43.25C44.8 43.25 46.5675 45.8293 46.5703 48.0822L47.2859 53.25H59.7167L58.8059 46.0894L58.8016 46.0346C58.8016 43.9938 57.3966 42.4548 55.5343 42.4548H52.5312L47.3175 42.4551H44.3178C43.4962 42.4551 42.7635 42.7544 42.201 43.2641Z" fill="#1D1D1B"/>
<path d="M35.1312 42C32.3713 42 30.1321 39.7608 30.1321 36.9994C30.1321 34.2394 32.3713 32 35.1312 32C37.8926 32 40.1321 34.2397 40.1321 36.9994C40.1321 39.7608 37.8929 42 35.1312 42Z" fill="#1D1D1B"/>
</svg>
