<svg width="57" height="57" viewBox="0 0 57 57" fill="none" xmlns="http://www.w3.org/2000/svg">
<rect x="0.939209" y="0.915771" width="56" height="56" rx="28" fill="white"/>
<path d="M18.1725 32.5674V32.551C18.1725 31.3694 19.1059 30.4784 20.3426 30.4784H22.3338H24.0642L25.7945 30.4783H27.7879C29.0241 30.4783 30.158 31.3693 30.158 32.5508L30.8057 36.7283H17.5642L18.1725 32.5674Z" fill="#1D1D1B"/>
<path fill-rule="evenodd" clip-rule="evenodd" d="M33.6784 27.8502C31.7265 27.8502 30.1429 26.3395 30.1429 24.4763C30.1429 22.6142 31.7265 21.1033 33.6784 21.1033C35.6314 21.1033 37.2152 22.6144 37.2152 24.4763C37.2152 26.3395 35.6315 27.8502 33.6784 27.8502ZM27.91 31.4553V31.4376C27.91 31.1726 27.9494 30.9212 28.0228 30.6891H28.1451C29.3296 30.6891 30.2231 31.573 30.2231 32.7452L30.2259 32.7766L30.6724 35.947H27.3142L27.91 31.4553ZM28.659 29.7058L28.7293 29.697C30.3484 29.697 31.4972 31.3091 31.4991 32.7171L31.9642 35.947H40.0442L39.4522 31.4716L39.4494 31.4374C39.4494 30.1619 38.5362 29.2 37.3256 29.2H35.3736L31.9848 29.2002H30.035C29.5009 29.2002 29.0246 29.3873 28.659 29.7058Z" fill="#1D1D1B"/>
<path d="M24.0637 28.9158C22.2697 28.9158 20.8142 27.5163 20.8142 25.7904C20.8142 24.0654 22.2697 22.6658 24.0637 22.6658C25.8586 22.6658 27.3142 24.0656 27.3142 25.7904C27.3142 27.5163 25.8587 28.9158 24.0637 28.9158Z" fill="#1D1D1B"/>
</svg>
