<svg width="85" height="85" viewBox="0 0 85 85" fill="none" xmlns="http://www.w3.org/2000/svg">
<rect x="0.465149" y="0.936096" width="84" height="84" rx="42" fill="#F4F5F7"/>
<path fill-rule="evenodd" clip-rule="evenodd" d="M33.9658 53.3242H28.2996V58.046H33.9658V53.3242ZM26.4109 51.4354V59.9347H35.8546V51.4354H26.4109Z" fill="#1D1D1B"/>
<path fill-rule="evenodd" clip-rule="evenodd" d="M46.2426 47.6579H40.5764V58.046H46.2426V47.6579ZM38.6877 45.7692V59.9347H48.1314V45.7692H38.6877Z" fill="#1D1D1B"/>
<path fill-rule="evenodd" clip-rule="evenodd" d="M58.5194 41.9917H52.8532V58.046H58.5194V41.9917ZM50.9645 40.103V59.9347H60.4082V40.103H50.9645Z" fill="#1D1D1B"/>
<path d="M26.4109 58.046H60.4082V59.9348H26.4109V58.046Z" fill="#1D1D1B"/>
<path fill-rule="evenodd" clip-rule="evenodd" d="M59.1512 28.5283L49.4381 37.27H37.81L31.6716 47.6581H24.5221V45.7693H30.5938L36.7322 35.3813H48.7133L57.8877 27.1244L59.1512 28.5283Z" fill="#00A88E"/>
<path d="M39.6321 36.3255C39.6321 37.3686 38.7864 38.2142 37.7433 38.2142C36.7002 38.2142 35.8546 37.3686 35.8546 36.3255C35.8546 35.2824 36.7002 34.4368 37.7433 34.4368C38.7864 34.4368 39.6321 35.2824 39.6321 36.3255Z" fill="#00A88E"/>
<path d="M33.0215 46.7136C33.0215 47.7568 32.1758 48.6024 31.1327 48.6024C30.0896 48.6024 29.244 47.7568 29.244 46.7136C29.244 45.6705 30.0896 44.8249 31.1327 44.8249C32.1758 44.8249 33.0215 45.6705 33.0215 46.7136Z" fill="#00A88E"/>
<path d="M50.9645 36.3255C50.9645 37.3686 50.1188 38.2142 49.0757 38.2142C48.0326 38.2142 47.187 37.3686 47.187 36.3255C47.187 35.2824 48.0326 34.4368 49.0757 34.4368C50.1188 34.4368 50.9645 35.2824 50.9645 36.3255Z" fill="#00A88E"/>
<path fill-rule="evenodd" clip-rule="evenodd" d="M53.7976 25.9374H60.4082V32.548H58.5194V27.8262H53.7976V25.9374Z" fill="#00A88E"/>
</svg>
