<svg width="57" height="57" viewBox="0 0 57 57" fill="none" xmlns="http://www.w3.org/2000/svg">
<rect x="0.522461" y="0.525146" width="56" height="56" rx="28" fill="white"/>
<path fill-rule="evenodd" clip-rule="evenodd" d="M22.8562 35.4506H19.0787V38.5985H22.8562V35.4506ZM17.8196 34.1914V39.8576H24.1154V34.1914H17.8196Z" fill="#1D1D1B"/>
<path fill-rule="evenodd" clip-rule="evenodd" d="M31.0408 31.6731H27.2633V38.5985H31.0408V31.6731ZM26.0042 30.4139V39.8576H32.2999V30.4139H26.0042Z" fill="#1D1D1B"/>
<path fill-rule="evenodd" clip-rule="evenodd" d="M39.2254 27.8955H35.4479V38.5984H39.2254V27.8955ZM34.1887 26.6364V39.8575H40.4845V26.6364H34.1887Z" fill="#1D1D1B"/>
<path d="M17.8196 38.5984H40.4844V39.8575H17.8196V38.5984Z" fill="#1D1D1B"/>
<path fill-rule="evenodd" clip-rule="evenodd" d="M39.6464 18.9201L33.1711 24.7479H25.419L21.3267 31.6733H16.5604V30.4141H20.6082L24.7005 23.4887H32.6879L38.8041 17.9841L39.6464 18.9201Z" fill="#00A88E"/>
<path d="M26.6337 24.1182C26.6337 24.8136 26.0699 25.3773 25.3745 25.3773C24.6791 25.3773 24.1154 24.8136 24.1154 24.1182C24.1154 23.4228 24.6791 22.859 25.3745 22.859C26.0699 22.859 26.6337 23.4228 26.6337 24.1182Z" fill="#00A88E"/>
<path d="M22.2267 31.0435C22.2267 31.7389 21.6629 32.3026 20.9675 32.3026C20.2721 32.3026 19.7084 31.7389 19.7084 31.0435C19.7084 30.348 20.2721 29.7843 20.9675 29.7843C21.6629 29.7843 22.2267 30.348 22.2267 31.0435Z" fill="#00A88E"/>
<path d="M34.1886 24.1182C34.1886 24.8136 33.6249 25.3773 32.9294 25.3773C32.234 25.3773 31.6703 24.8136 31.6703 24.1182C31.6703 23.4228 32.234 22.859 32.9294 22.859C33.6249 22.859 34.1886 23.4228 34.1886 24.1182Z" fill="#00A88E"/>
<path fill-rule="evenodd" clip-rule="evenodd" d="M36.0774 17.1926H40.4844V21.5997H39.2253V18.4518H36.0774V17.1926Z" fill="#00A88E"/>
</svg>
