<svg width="64" height="66" viewBox="0 0 64 66" fill="none" xmlns="http://www.w3.org/2000/svg">
<path fill-rule="evenodd" clip-rule="evenodd" d="M42.59 25.3542H52.9997V31.0048H32.7021V11.2277H38.5014V21.3705L59.6399 0.745772L63.7575 4.75771L42.59 25.3542ZM32.1802 38.3506L50.738 46.1485L48.2733 59.8229C47.9389 61.5612 46.8918 63.0916 45.3737 64.0609C44.3336 64.7056 43.1267 65.0485 41.8941 65.0498C41.3556 65.0563 40.8189 64.9897 40.2993 64.852C32.0416 62.7309 24.4636 58.6213 18.2619 52.9009C15.1371 50.0348 12.3815 46.8091 10.0558 43.2949C7.66009 39.6303 5.71369 35.7045 4.25651 31.5981C1.35674 23.4388 0.366022 14.7509 1.35686 6.17034C1.46491 4.42786 2.31666 2.80902 3.70558 1.70635C5.15251 0.660997 6.97727 0.242052 8.75098 0.547974L22.8143 2.94949V24.111L18.0009 27.1059C19.0223 29.8912 20.3647 32.5546 22.0024 35.045C23.5813 37.5085 25.4497 39.7841 27.5698 41.8257L32.1802 38.3506ZM33.0208 44.8486L27.2215 49.1713L25.4527 47.6457C22.2001 44.8634 19.3775 41.6374 17.0727 38.0679C14.7643 34.5605 12.9686 30.7568 11.7373 26.7666L11.0704 24.7042L16.8697 21.0313V7.69581L7.59083 6.11363V6.11363C7.44899 6.072 7.29771 6.072 7.15588 6.11363C7.02303 6.22277 6.93122 6.37186 6.89491 6.53743C6.01759 14.3221 6.93899 22.1993 9.59159 29.5919C10.9313 33.2809 12.702 36.8075 14.869 40.1021C16.968 43.1955 19.43 46.04 22.2051 48.578C27.6868 53.6925 34.4114 57.3671 41.7488 59.2577C41.9071 59.319 42.0835 59.319 42.2417 59.2577C42.3971 59.1341 42.5087 58.9661 42.5607 58.7774L44.2425 49.5104L33.0208 44.8486Z" fill="#2DA771"/>
</svg>
