<svg width="57" height="57" viewBox="0 0 57 57" fill="none" xmlns="http://www.w3.org/2000/svg">
<rect x="0.230713" y="0.525146" width="56" height="56" rx="28" fill="white"/>
<path d="M10.9023 31.5959C13.5824 28.8717 16.2659 24.5098 17.5036 23.5516C18.7413 22.5934 22.4546 21.146 24.2699 20.701C24.9962 20.5229 25.6898 20.9291 27.5705 23.0459C28.2307 23.7891 28.2307 24.9043 28.2307 27.1351C26.9929 27.1351 26.3803 27.1351 26.0853 25.6145C25.9547 24.9418 24.93 24.3019 23.2797 24.7894C22.3229 25.072 21.0902 26.33 20.8042 27.1351C20.1441 28.6221 20.8301 30.241 22.4546 31.5959C23.6923 32.6284 26.1189 34.2454 26.9104 34.6913C27.6079 35.0842 28.1014 35.7458 28.2087 37.3402C28.2317 37.6816 27.8948 37.9235 27.5706 37.814L24.93 36.9219C22.5991 36.1634 18.8989 35.1681 16.6785 35.7668L13.7904 37.9919" stroke="#1D1D1B"/>
<path d="M28.2307 25.4849C28.2307 23.254 28.2307 22.1388 27.5706 21.3956C25.6899 19.2789 24.9962 18.8727 24.27 19.0507C22.4546 19.4957 18.7414 22.5935 17.5037 23.5517" stroke="#1D1D1B"/>
<path d="M23.8157 25.0537C24.2371 26.5442 24.8476 26.4929 26.081 26.3891C26.0391 25.8907 25.7959 25.5964 25.7553 25.202" stroke="#1D1D1B"/>
<path d="M23.503 24.6765C23.6695 25.0364 23.8485 25.4429 24.05 25.9007C23.0526 26.3398 22.4987 26.5836 21.778 25.7668" stroke="#1D1D1B"/>
<path d="M45.5591 31.5959C42.8791 28.8717 40.1956 24.5098 38.9578 23.5516C37.7201 22.5934 34.0069 21.146 32.1915 20.701C31.4653 20.5229 30.7716 20.9291 28.8909 23.0459C28.2308 23.7891 28.2308 24.9043 28.2308 27.1351C29.4685 27.1351 30.0811 27.1351 30.3762 25.6145C30.5067 24.9418 31.5314 24.3019 33.1817 24.7894C34.1385 25.072 35.3712 26.33 35.6572 27.1351C36.3173 28.6221 35.6313 30.241 34.0069 31.5959C32.7691 32.6284 30.3425 34.2454 29.551 34.6913C28.8535 35.0842 28.36 35.7458 28.2527 37.3402C28.2297 37.6816 28.5667 37.9235 28.8908 37.814L31.5314 36.9219C33.8623 36.1634 37.5626 35.1681 39.783 35.7668L42.671 37.9919" stroke="#1D1D1B"/>
<path d="M28.2307 25.4849C28.2307 23.254 28.2307 22.1388 28.8908 21.3956C30.7716 19.2789 31.4652 18.8727 32.1915 19.0507C34.0068 19.4957 37.72 22.5935 38.9578 23.5517" stroke="#1D1D1B"/>
<path d="M32.6458 25.0537C32.2243 26.5442 31.6138 26.4929 30.3804 26.3891C30.4224 25.8907 30.6655 25.5964 30.7061 25.202" stroke="#1D1D1B"/>
<path d="M32.9584 24.6765C32.7919 25.0364 32.613 25.4429 32.4114 25.9007C33.4088 26.3398 33.9627 26.5836 34.6834 25.7668" stroke="#1D1D1B"/>
<path d="M25.9758 28.9166C26.5844 28.308 27.5712 28.308 28.1799 28.9166L30.935 31.6717L28.7309 33.8758L25.9758 31.1207C25.3671 30.5121 25.3671 29.5252 25.9758 28.9166Z" fill="#00A88E"/>
<path d="M31.486 28.9166C32.0946 29.5252 32.0946 30.512 31.486 31.1206L28.7309 33.8758L26.5268 31.6717L29.2819 28.9166C29.8906 28.3079 30.8774 28.3079 31.486 28.9166Z" fill="#00A88E"/>
</svg>
