<svg width="69" height="41" viewBox="0 0 69 41" fill="none" xmlns="http://www.w3.org/2000/svg">
<path d="M37.9791 40.315C39.7046 40.315 40.41 39.1647 40.3902 37.7226C40.3024 32.2913 42.4131 29.3675 46.2238 33.1781C50.4396 37.394 51.3122 40.315 56.4319 40.315H65.4982C67.7874 40.315 68.6884 39.5784 68.6884 38.4224C68.6884 35.9774 64.6624 31.6624 61.2512 28.4948C56.4744 24.0609 56.2505 23.956 60.3644 18.6182C65.467 11.9914 72.1421 3.50021 66.2376 3.50021H54.9586C52.7714 3.50021 52.6127 4.73266 51.8336 6.56858C49.0145 13.2181 43.6569 21.8311 41.6227 20.5137C39.4949 19.1396 40.4695 13.697 40.631 5.60812C40.6735 3.47188 40.6622 2.0071 37.3983 1.2478C35.6162 0.836985 33.8823 0.666992 32.273 0.666992C25.8331 0.666992 21.3907 3.36705 23.9151 3.83736C28.366 4.66749 27.9382 14.2976 26.9013 18.4568C25.0937 25.6985 18.2996 12.7223 15.4692 6.25976C14.7864 4.70716 14.5768 3.50021 12.1402 3.50021H2.9181C1.52415 3.50021 0.688354 3.95352 0.688354 4.96215C0.688354 6.66774 9.07467 24.0014 17.0813 32.6427C24.8897 41.0715 32.6074 40.315 37.9791 40.315Z" fill="#2DA771"/>
</svg>
