<svg width="69" height="40" viewBox="0 0 69 40" fill="none" xmlns="http://www.w3.org/2000/svg">
<path d="M37.6668 39.8536C39.3922 39.8536 40.0977 38.7033 40.0778 37.2612C39.99 31.8299 42.1007 28.906 45.9114 32.7167C50.1272 36.9325 50.9999 39.8536 56.1195 39.8536H65.1858C67.475 39.8536 68.376 39.117 68.376 37.961C68.376 35.5159 64.35 31.2009 60.9388 28.0334C56.162 23.5994 55.9382 23.4946 60.052 18.1568C65.1546 11.5299 71.8297 3.03878 65.9253 3.03878H54.6462C52.459 3.03878 52.3003 4.27123 51.5212 6.10715C48.7021 12.7567 43.3445 21.3697 41.3103 20.0522C39.1825 18.6781 40.1572 13.2355 40.3186 5.14669C40.3611 3.01045 40.3498 1.54568 37.0859 0.786375C35.3039 0.375559 33.5699 0.205566 31.9607 0.205566C25.5208 0.205566 21.0783 2.90562 23.6027 3.37593C28.0537 4.20607 27.6258 13.8362 26.5889 17.9953C24.7813 25.237 17.9872 12.2609 15.1569 5.79833C14.4741 4.24573 14.2644 3.03878 11.8278 3.03878H2.60572C1.21178 3.03878 0.375977 3.4921 0.375977 4.50072C0.375977 6.20632 8.76229 23.5399 16.769 32.1812C24.5773 40.6101 32.295 39.8536 37.6668 39.8536Z" fill="#2DA771"/>
</svg>
