<svg width="54" height="54" viewBox="0 0 54 54" fill="none" xmlns="http://www.w3.org/2000/svg">
<path d="M27.3787 14.3803C20.354 14.3803 14.6432 20.0911 14.641 27.1136C14.6388 29.98 15.4802 32.1265 16.8913 34.3724L15.6061 39.0717L20.4247 37.8063C22.5844 39.0872 24.6448 39.8557 27.3699 39.8579C34.388 39.8579 40.1053 34.1449 40.1075 27.1246C40.1097 20.0867 34.4211 14.3825 27.3787 14.3803ZM34.8694 32.5858C34.5514 33.4802 33.021 34.2951 32.2856 34.4055C31.6253 34.5049 30.7906 34.5446 29.8741 34.2531C29.3176 34.0764 28.6043 33.8402 27.6923 33.4471C23.852 31.7886 21.3455 27.9218 21.1534 27.6679C20.9613 27.4117 19.5899 25.592 19.5899 23.7083C19.5899 21.8246 20.5792 20.8971 20.9304 20.5151C21.2815 20.133 21.6944 20.0359 21.9506 20.0359L22.6838 20.0491C22.9179 20.0602 23.2337 19.9608 23.545 20.7072C23.863 21.4735 24.6293 23.3572 24.7243 23.5493C24.8192 23.7414 24.8833 23.9645 24.7552 24.2207C24.6271 24.4768 24.5631 24.6358 24.3732 24.8589L23.799 25.5302C23.6069 25.7201 23.4081 25.9277 23.6312 26.3119C23.8542 26.6962 24.6227 27.9483 25.76 28.9642C27.2219 30.2693 28.4564 30.6734 28.8384 30.8633C29.2204 31.0532 29.4435 31.0223 29.6687 30.7684C29.8918 30.5122 30.6249 29.6509 30.8811 29.2667C31.1373 28.8847 31.3912 28.9465 31.7424 29.0746C32.0935 29.2027 33.975 30.1279 34.357 30.3201C34.7391 30.5122 34.9952 30.6072 35.0902 30.7662C35.1896 30.9252 35.1896 31.6914 34.8694 32.5858ZM27.3102 0.750488C12.6756 0.750488 0.810242 12.6159 0.810242 27.2505C0.810242 41.8851 12.6756 53.7505 27.3102 53.7505C41.9449 53.7505 53.8102 41.8851 53.8102 27.2505C53.8102 12.6159 41.9449 0.750488 27.3102 0.750488ZM27.3743 42.4438C24.8104 42.4438 22.2841 41.799 20.047 40.58L11.927 42.7088L14.1 34.7699C12.7595 32.4467 12.0529 29.8099 12.0551 27.1114C12.0573 18.6645 18.9296 11.7922 27.3743 11.7922C31.4729 11.7944 35.3199 13.3888 38.2106 16.2839C41.1035 19.179 42.6957 23.0282 42.6935 27.1224C42.6913 35.5693 35.819 42.4438 27.3743 42.4438Z" fill="#2DA771"/>
</svg>
