<svg width="68" height="68" viewBox="0 0 68 68" fill="none" xmlns="http://www.w3.org/2000/svg">
<path d="M34.0878 17.4873C25.075 17.4873 17.748 24.8143 17.7452 33.8243C17.7423 37.502 18.8218 40.256 20.6323 43.1375L18.9833 49.1668L25.1657 47.5433C27.9367 49.1867 30.5802 50.1727 34.0765 50.1755C43.0808 50.1755 50.4163 42.8457 50.4192 33.8385C50.422 24.8087 43.1233 17.4902 34.0878 17.4873ZM43.6985 40.8453C43.2905 41.9928 41.327 43.0383 40.3835 43.18C39.5363 43.3075 38.4653 43.3585 37.2895 42.9845C36.5755 42.7578 35.6603 42.4547 34.4902 41.9503C29.563 39.8225 26.3472 34.8613 26.1007 34.5355C25.8542 34.2068 24.0947 31.8722 24.0947 29.4553C24.0947 27.0385 25.364 25.8485 25.8145 25.3583C26.265 24.8682 26.7948 24.7435 27.1235 24.7435L28.0642 24.7605C28.3645 24.7747 28.7697 24.6472 29.1692 25.6048C29.5772 26.588 30.5603 29.0048 30.6822 29.2513C30.804 29.4978 30.8862 29.784 30.7218 30.1127C30.5575 30.4413 30.4753 30.6453 30.2317 30.9315L29.495 31.7928C29.2485 32.0365 28.9935 32.3028 29.2797 32.7958C29.5658 33.2888 30.5518 34.8953 32.011 36.1987C33.8867 37.8732 35.4705 38.3917 35.9607 38.6353C36.4508 38.879 36.737 38.8393 37.026 38.5135C37.3122 38.1848 38.2528 37.0798 38.5815 36.5868C38.9102 36.0967 39.236 36.176 39.6865 36.3403C40.137 36.5047 42.551 37.6918 43.0412 37.9383C43.5313 38.1848 43.86 38.3067 43.9818 38.5107C44.1093 38.7147 44.1093 39.6978 43.6985 40.8453ZM34 0C15.2235 0 0 15.2235 0 34C0 52.7765 15.2235 68 34 68C52.7765 68 68 52.7765 68 34C68 15.2235 52.7765 0 34 0ZM34.0822 53.4933C30.7927 53.4933 27.5513 52.666 24.6812 51.102L14.263 53.8333L17.051 43.6475C15.3312 40.6668 14.4245 37.2838 14.4273 33.8215C14.4302 22.984 23.2475 14.1667 34.0822 14.1667C39.3408 14.1695 44.2765 16.2152 47.9853 19.9297C51.697 23.6442 53.7398 28.5827 53.737 33.8357C53.7342 44.6732 44.9168 53.4933 34.0822 53.4933Z" fill="#2DA771"/>
</svg>
