<svg width="62" height="62" viewBox="0 0 62 62" fill="none" xmlns="http://www.w3.org/2000/svg">
<path d="M20.5113 36.7787L24.4968 40.7642L13.5366 51.7244L9.55113 47.7388L20.5113 36.7787Z" fill="#1D1D1B"/>
<path fill-rule="evenodd" clip-rule="evenodd" d="M33.8182 43.1818C42.3786 43.1818 49.3182 36.2422 49.3182 27.6818C49.3182 19.1214 42.3786 12.1818 33.8182 12.1818C25.2578 12.1818 18.3182 19.1214 18.3182 27.6818C18.3182 36.2422 25.2578 43.1818 33.8182 43.1818ZM33.8182 46C43.935 46 52.1364 37.7987 52.1364 27.6818C52.1364 17.565 43.935 9.36365 33.8182 9.36365C23.7013 9.36365 15.5 17.565 15.5 27.6818C15.5 37.7987 23.7013 46 33.8182 46Z" fill="#1D1D1B"/>
<path fill-rule="evenodd" clip-rule="evenodd" d="M33.8182 17.8182C39.2657 17.8182 43.6818 22.2343 43.6818 27.6818C43.6818 33.1294 39.2657 37.5455 33.8182 37.5455C28.3706 37.5455 23.9545 33.1294 23.9545 27.6818C23.9545 22.2343 28.3706 17.8182 33.8182 17.8182ZM33.8182 15C40.8221 15 46.5 20.6779 46.5 27.6818C46.5 34.6858 40.8221 40.3636 33.8182 40.3636C26.8142 40.3636 21.1364 34.6858 21.1364 27.6818C21.1364 20.6779 26.8142 15 33.8182 15Z" fill="#00A88E"/>
</svg>
