<svg width="62" height="60" viewBox="0 0 62 60" fill="none" xmlns="http://www.w3.org/2000/svg">
<g clip-path="url(#clip0)">

<rect width="61" height="61" transform="translate(0 -1)" fill="none"/>
<path fill-rule="evenodd" clip-rule="evenodd" d="M30.5 10.0909C25.906 10.0909 22.1818 13.8151 22.1818 18.4091C22.1818 23.0031 25.906 26.7273 30.5 26.7273C35.094 26.7273 38.8181 23.0031 38.8181 18.4091C38.8181 13.8151 35.094 10.0909 30.5 10.0909ZM19.4091 18.4091C19.4091 12.2837 24.3746 7.31818 30.5 7.31818C36.6253 7.31818 41.5909 12.2837 41.5909 18.4091C41.5909 24.5344 36.6253 29.5 30.5 29.5C24.3746 29.5 19.4091 24.5344 19.4091 18.4091Z" fill="#1D1D1B"/>
<path fill-rule="evenodd" clip-rule="evenodd" d="M11.0909 41.9773C11.0909 36.6227 15.4409 32.2727 20.7954 32.2727H40.2045C45.5591 32.2727 49.9091 36.6227 49.9091 41.9773V47.5227H47.1363V41.9773C47.1363 38.1541 44.0277 35.0454 40.2045 35.0454H20.7954C16.9722 35.0454 13.8636 38.1541 13.8636 41.9773V47.5227H11.0909V41.9773Z" fill="#1D1D1B"/>
<path d="M29.0997 33.6591L26.3409 50.2954L30.5 54.4545L34.6591 50.2954L31.9002 33.6591H29.0997Z" fill="#00A88E"/>
</g>
<defs>
<clipPath id="clip0">
<rect width="61" height="61" fill="white" transform="translate(0.5 -1)"/>
</clipPath>
</defs>
</svg>
