<svg width="61" height="58" viewBox="0 0 61 58" fill="none" xmlns="http://www.w3.org/2000/svg">
<g clip-path="url(#clip0)">
<path fill-rule="evenodd" clip-rule="evenodd" d="M30.402 49.6818C18.1529 49.6818 8.22017 39.7491 8.22017 27.5C8.22017 15.2509 18.1529 5.31816 30.402 5.31816C42.6511 5.31816 52.5838 15.2509 52.5838 27.5C52.5838 39.7491 42.6511 49.6818 30.402 49.6818ZM5.44745 27.5C5.44745 41.2804 16.6215 52.4545 30.402 52.4545C44.1824 52.4545 55.3565 41.2804 55.3565 27.5C55.3565 13.7195 44.1824 2.54543 30.402 2.54543C16.6215 2.54544 5.44745 13.7195 5.44745 27.5Z" fill="#00A88E"/>
<path d="M38.9559 37.6066L19.3111 37.5928V20.9564L25.6468 20.9703L32.7034 13.6364H33.2995C35.3791 13.6364 36.7793 15.4525 36.7793 17.1578V17.4489C36.7931 18.1005 36.7931 18.9046 36.5159 19.7364C36.3495 20.2355 36.1416 20.6375 35.9059 20.9703H41.2295C42.2554 20.9703 43.2397 21.4555 43.9052 22.3012C44.5845 23.1607 44.8618 24.256 44.6261 25.2541L42.3663 34.8478C42.0197 36.456 40.6195 37.6066 38.9559 37.6066ZM27.6293 34.8339H38.9559C39.2886 34.8339 39.5797 34.5844 39.6491 34.2378L41.9088 24.6303C41.9504 24.4639 41.8672 24.2282 41.7147 24.0341C41.6454 23.951 41.4652 23.743 41.2018 23.743L33.5906 23.7291C32.8559 23.7291 32.1904 23.2855 31.8993 22.6062C31.6081 21.913 31.7606 21.1228 32.2875 20.5821C32.5093 20.3603 32.7311 20.18 32.9668 19.986C33.4243 19.6255 33.6877 19.4037 33.8679 18.863C34.0066 18.4748 33.9927 17.9757 33.9927 17.4905V17.1578C33.9927 17.0053 33.8956 16.7557 33.7154 16.5894L27.6293 22.9112V34.8339ZM22.0838 34.8339H24.8566V23.743H22.0838V34.8339Z" fill="#1D1D1B"/>
</g>
<defs>
<clipPath id="clip0">
<rect width="61" height="61" fill="white" transform="translate(-0.0980225 -3)"/>
</clipPath>
</defs>
</svg>
