<svg width="54" height="54" viewBox="0 0 54 54" fill="none" xmlns="http://www.w3.org/2000/svg">
<path d="M31.2306 23.9998C31.2306 25.7488 30.6387 28.0389 29.7201 29.8342C27.4919 34.2067 22.9559 34.178 22.9559 29.5251C22.9559 27.7893 23.5522 25.5523 24.4731 23.8276C26.7278 19.5765 31.2306 20.2412 31.2306 23.9998ZM53.9366 27.2505C53.9366 41.8851 42.0713 53.7505 27.4366 53.7505C12.802 53.7505 0.936646 41.8851 0.936646 27.2505C0.936646 12.6159 12.802 0.750488 27.4366 0.750488C42.0713 0.750488 53.9366 12.6159 53.9366 27.2505ZM42.895 24.6137C42.895 17.4455 37.0849 12.2449 29.0796 12.2449C18.1109 12.2449 11.9783 19.1989 11.9783 27.8644C11.9783 35.9734 17.4263 42.2561 27.4896 42.2561C33.0546 42.2561 36.5968 40.6529 38.8007 39.4118L37.2836 37.2233C35.0267 38.5329 32.3126 39.732 27.8849 39.732C20.3126 39.732 15.2246 34.8759 15.2246 27.6458C15.2246 15.0274 29.3601 12.7219 35.5721 16.4473C41.3668 20.0734 41.146 28.7654 36.8574 32.0889C34.574 33.913 32.0013 33.8534 32.836 30.4194C32.836 30.4194 35.5125 20.5062 35.8261 19.433H32.8139L32.2155 21.5353C31.6016 19.8018 30.133 18.6755 27.9954 18.6755C23.5389 18.6755 19.7759 23.5118 19.7759 29.238C19.7759 33.0584 21.7921 35.4302 25.0318 35.4302C27.8651 35.4302 29.338 33.8269 30.2523 32.3981C29.5898 38.7979 42.895 35.8365 42.895 24.6137Z" fill="#2DA771"/>
</svg>
