<svg width="52" height="55" viewBox="0 0 52 55" fill="none" xmlns="http://www.w3.org/2000/svg">
<path fill-rule="evenodd" clip-rule="evenodd" d="M34.3805 21.1197H42.9218V25.8038H26.2674V9.40954H31.0258V17.8174L48.3702 0.720603L51.7487 4.04629L34.3805 21.1197ZM25.8392 31.893L41.0661 38.357L39.0438 49.6925C38.7694 51.1334 37.9102 52.402 36.6646 53.2055C35.8112 53.7399 34.8209 54.0242 33.8095 54.0252C33.3677 54.0306 32.9273 53.9755 32.5009 53.8613C25.7254 52.103 19.5076 48.6963 14.419 43.9545C11.8551 41.5786 9.59408 38.9047 7.68582 35.9916C5.72008 32.9538 4.12304 29.6996 2.9274 26.2956C0.548103 19.5319 -0.264795 12.3301 0.548196 5.21728C0.636853 3.77286 1.33573 2.43093 2.47535 1.51687C3.66258 0.65033 5.15981 0.303046 6.61517 0.55664L18.1543 2.54737V20.0892L14.2048 22.5717C15.0429 24.8806 16.1444 27.0884 17.4881 29.1528C18.7837 31.1949 20.3167 33.0813 22.0562 34.7737L25.8392 31.893ZM26.5289 37.2795L21.7705 40.8628L20.3192 39.5981C17.6503 37.2918 15.3344 34.6176 13.4433 31.6587C11.5492 28.7512 10.0758 25.5982 9.06552 22.2905L8.5183 20.5808L13.2767 17.5362V6.48182L5.66325 5.17028V5.17028C5.54687 5.13577 5.42275 5.13577 5.30637 5.17028C5.19737 5.26074 5.12204 5.38434 5.09224 5.52158C4.37239 11.9746 5.12841 18.5045 7.3049 24.6326C8.40414 27.6905 9.85707 30.6138 11.6351 33.3449C13.3574 35.9092 15.3775 38.2672 17.6545 40.371C22.1523 44.6106 27.6699 47.6567 33.6903 49.2239C33.8202 49.2747 33.9649 49.2747 34.0948 49.2239C34.2222 49.1214 34.3138 48.9822 34.3565 48.8257L35.7364 41.1439L26.5289 37.2795Z" fill="#2DA771"/>
</svg>
