<svg width="85" height="85" viewBox="0 0 85 85" fill="none" xmlns="http://www.w3.org/2000/svg">
<rect x="0.979431" y="0.49585" width="83.7144" height="84" rx="41.8572" fill="#F4F5F7"/>
<path d="M20.0039 46.556C23.5352 42.9542 27.0712 37.1871 28.7021 35.9202C30.333 34.6533 35.2257 32.7396 37.6177 32.1512C38.5747 31.9159 39.4886 32.4529 41.9668 35.2516C42.8366 36.2342 42.8366 37.7087 42.8366 40.6582C41.2057 40.6582 40.3984 40.6582 40.0097 38.6477C39.8377 37.7582 38.4875 36.9123 36.313 37.5567C35.0522 37.9303 33.4279 39.5936 33.0512 40.6582C32.1813 42.6242 33.0853 44.7645 35.2257 46.556C36.8566 47.921 40.0541 50.059 41.097 50.6485C42.0478 51.1859 42.711 52.1038 42.8206 54.3741C42.8371 54.7161 42.5003 54.958 42.1761 54.8481L38.4875 53.5977C35.4162 52.5949 30.5405 51.2789 27.6148 52.0705L23.8094 55.0124" stroke="#1D1D1B"/>
<path d="M42.8366 38.4762C42.8366 35.5267 42.8366 34.0522 41.9668 33.0696C39.4887 30.2709 38.5747 29.7338 37.6177 29.9692C35.2257 30.5576 30.333 34.6533 28.7021 35.9202" stroke="#1D1D1B"/>
<path d="M37.0191 37.9061C37.5743 39.876 38.3787 39.8081 40.0039 39.6709C39.9487 39.0121 39.6283 38.6232 39.5748 38.102" stroke="#1D1D1B"/>
<path d="M36.6061 37.408C36.8255 37.8835 37.0612 38.4207 37.3266 39.0258C36.0129 39.606 35.2833 39.9283 34.3342 38.8489" stroke="#1D1D1B"/>
<path d="M65.6693 46.556C62.138 42.9542 58.602 37.1871 56.9711 35.9202C55.3402 34.6533 50.4475 32.7396 48.0555 32.1512C47.0985 31.9159 46.1846 32.4529 43.7064 35.2516C42.8366 36.2342 42.8366 37.7087 42.8366 40.6582C44.4675 40.6582 45.2748 40.6582 45.6635 38.6477C45.8355 37.7582 47.1857 36.9123 49.3602 37.5567C50.621 37.9303 52.2453 39.5936 52.6221 40.6582C53.4919 42.6242 52.5879 44.7645 50.4475 46.556C48.8166 47.921 45.6191 50.059 44.5762 50.6485C43.6254 51.1859 42.9622 52.1038 42.8526 54.3741C42.8361 54.7161 43.1729 54.958 43.4971 54.8481L47.1857 53.5977C50.2571 52.5949 55.1327 51.2789 58.0584 52.0705L61.8639 55.0124" stroke="#1D1D1B"/>
<path d="M42.8366 38.4762C42.8366 35.5267 42.8366 34.0522 43.7064 33.0696C46.1846 30.2709 47.0985 29.7338 48.0555 29.9692C50.4475 30.5576 55.3402 34.6533 56.9711 35.9202" stroke="#1D1D1B"/>
<path d="M48.6541 37.9061C48.0989 39.876 47.2945 39.8081 45.6693 39.6709C45.7245 39.0121 46.0449 38.6232 46.0984 38.102" stroke="#1D1D1B"/>
<path d="M49.067 37.408C48.8477 37.8835 48.612 38.4207 48.3466 39.0258C49.6603 39.606 50.3899 39.9283 51.339 38.8489" stroke="#1D1D1B"/>
<path d="M38.4283 42.1532C39.4022 41.1793 40.9811 41.1793 41.9549 42.1532L46.3632 46.5614L42.8366 50.088L38.4283 45.6798C37.4545 44.7059 37.4545 43.127 38.4283 42.1532Z" fill="#00A88E"/>
<path d="M47.2449 42.1531C48.2187 43.1269 48.2187 44.7059 47.2449 45.6797L42.8366 50.088L39.31 46.5613L43.7183 42.1531C44.6921 41.1793 46.271 41.1793 47.2449 42.1531Z" fill="#00A88E"/>
</svg>
